<?xml version="1.0" encoding="UTF-8" standalone="no"?>
<svg
   xmlns:ns0="http://www.iki.fi/pav/software/textext/"
   xmlns:dc="http://purl.org/dc/elements/1.1/"
   xmlns:cc="http://creativecommons.org/ns#"
   xmlns:rdf="http://www.w3.org/1999/02/22-rdf-syntax-ns#"
   xmlns:svg="http://www.w3.org/2000/svg"
   xmlns="http://www.w3.org/2000/svg"
   xmlns:xlink="http://www.w3.org/1999/xlink"
   xmlns:sodipodi="http://sodipodi.sourceforge.net/DTD/sodipodi-0.dtd"
   xmlns:inkscape="http://www.inkscape.org/namespaces/inkscape"
   version="1.1"
   id="svg2"
   viewBox="0 0 488.51266 407.31334"
   height="407.31332"
   width="488.51266"
   inkscape:version="0.91 r13725"
   sodipodi:docname="MDN_architecture.svg">
  <sodipodi:namedview
     pagecolor="#ffffff"
     bordercolor="#666666"
     borderopacity="1"
     objecttolerance="10"
     gridtolerance="10"
     guidetolerance="10"
     inkscape:pageopacity="0"
     inkscape:pageshadow="2"
     inkscape:window-width="1609"
     inkscape:window-height="1101"
     id="namedview4247"
     showgrid="true"
     fit-margin-top="2"
     fit-margin-right="2"
     fit-margin-bottom="2"
     fit-margin-left="2"
     inkscape:zoom="1.9233304"
     inkscape:cx="223.199"
     inkscape:cy="225.96333"
     inkscape:window-x="0"
     inkscape:window-y="0"
     inkscape:window-maximized="0"
     inkscape:current-layer="svg2">
    <inkscape:grid
       type="xygrid"
       id="grid4249"
       originx="-3.0000151"
       originy="-1.4601073" />
  </sodipodi:namedview>
  <defs
     id="defs4">
    <linearGradient
       id="linearGradient14390">
      <stop
         style="stop-color:#ffffff;stop-opacity:1"
         offset="0"
         id="stop14392" />
      <stop
         style="stop-color:#00a000;stop-opacity:1"
         offset="1"
         id="stop14394" />
    </linearGradient>
    <linearGradient
       id="linearGradient14307">
      <stop
         id="stop14384"
         offset="0"
         style="stop-color:#ffffff;stop-opacity:1" />
      <stop
         id="stop14386"
         offset="1"
         style="stop-color:#ff0000;stop-opacity:1" />
    </linearGradient>
    <linearGradient
       id="linearGradient14360">
      <stop
         style="stop-color:#ffffff;stop-opacity:1"
         offset="0"
         id="stop14362" />
      <stop
         style="stop-color:#0078ff;stop-opacity:1"
         offset="1"
         id="stop14364" />
    </linearGradient>
    <marker
       style="overflow:visible"
       id="marker12152"
       refX="0"
       refY="0"
       orient="auto">
      <path
         transform="matrix(-0.8,0,0,-0.8,-10,0)"
         style="fill:#787878;fill-opacity:1;fill-rule:evenodd;stroke:#787878;stroke-width:1pt;stroke-opacity:1"
         d="M 0,0 5,-5 -12.5,0 5,5 0,0 Z"
         id="path12154"
         inkscape:connector-curvature="0" />
    </marker>
    <marker
       orient="auto"
       refY="0"
       refX="0"
       id="marker11846"
       style="overflow:visible">
      <path
         id="path11848"
         d="M 0,0 5,-5 -12.5,0 5,5 0,0 Z"
         style="fill:#787878;fill-opacity:1;fill-rule:evenodd;stroke:#787878;stroke-width:1pt;stroke-opacity:1"
         transform="matrix(-0.8,0,0,-0.8,-10,0)"
         inkscape:connector-curvature="0" />
    </marker>
    <marker
       orient="auto"
       refY="0"
       refX="0"
       id="marker11534"
       style="overflow:visible">
      <path
         id="path11536"
         d="M 0,0 5,-5 -12.5,0 5,5 0,0 Z"
         style="fill:#787878;fill-opacity:1;fill-rule:evenodd;stroke:#787878;stroke-width:1pt;stroke-opacity:1"
         transform="matrix(-0.8,0,0,-0.8,-10,0)"
         inkscape:connector-curvature="0" />
    </marker>
    <marker
       orient="auto"
       refY="0"
       refX="0"
       id="marker10982"
       style="overflow:visible">
      <path
         id="path10984"
         d="M 0,0 5,-5 -12.5,0 5,5 0,0 Z"
         style="fill:#787878;fill-opacity:1;fill-rule:evenodd;stroke:#787878;stroke-width:1pt;stroke-opacity:1"
         transform="matrix(-0.8,0,0,-0.8,-10,0)"
         inkscape:connector-curvature="0" />
    </marker>
    <marker
       style="overflow:visible"
       id="marker10808"
       refX="0"
       refY="0"
       orient="auto">
      <path
         transform="matrix(-0.8,0,0,-0.8,-10,0)"
         style="fill:#787878;fill-opacity:1;fill-rule:evenodd;stroke:#787878;stroke-width:1pt;stroke-opacity:1"
         d="M 0,0 5,-5 -12.5,0 5,5 0,0 Z"
         id="path10810"
         inkscape:connector-curvature="0" />
    </marker>
    <marker
       style="overflow:visible"
       id="marker10478"
       refX="0"
       refY="0"
       orient="auto">
      <path
         transform="matrix(-0.8,0,0,-0.8,-10,0)"
         style="fill:#787878;fill-opacity:1;fill-rule:evenodd;stroke:#787878;stroke-width:1pt;stroke-opacity:1"
         d="M 0,0 5,-5 -12.5,0 5,5 0,0 Z"
         id="path10480"
         inkscape:connector-curvature="0" />
    </marker>
    <marker
       orient="auto"
       refY="0"
       refX="0"
       id="marker9782"
       style="overflow:visible">
      <path
         id="path9784"
         d="M 0,0 5,-5 -12.5,0 5,5 0,0 Z"
         style="fill:#787878;fill-opacity:1;fill-rule:evenodd;stroke:#787878;stroke-width:1pt;stroke-opacity:1"
         transform="matrix(-0.8,0,0,-0.8,-10,0)"
         inkscape:connector-curvature="0" />
    </marker>
    <marker
       style="overflow:visible"
       id="marker9554"
       refX="0"
       refY="0"
       orient="auto">
      <path
         transform="matrix(-0.8,0,0,-0.8,-10,0)"
         style="fill:#787878;fill-opacity:1;fill-rule:evenodd;stroke:#787878;stroke-width:1pt;stroke-opacity:1"
         d="M 0,0 5,-5 -12.5,0 5,5 0,0 Z"
         id="path9556"
         inkscape:connector-curvature="0" />
    </marker>
    <marker
       orient="auto"
       refY="0"
       refX="0"
       id="marker9302"
       style="overflow:visible">
      <path
         id="path9304"
         d="M 0,0 5,-5 -12.5,0 5,5 0,0 Z"
         style="fill:#787878;fill-opacity:1;fill-rule:evenodd;stroke:#787878;stroke-width:1pt;stroke-opacity:1"
         transform="matrix(-0.8,0,0,-0.8,-10,0)"
         inkscape:connector-curvature="0" />
    </marker>
    <marker
       orient="auto"
       refY="0"
       refX="0"
       id="marker8978"
       style="overflow:visible">
      <path
         id="path8980"
         d="M 0,0 5,-5 -12.5,0 5,5 0,0 Z"
         style="fill:#787878;fill-opacity:1;fill-rule:evenodd;stroke:#787878;stroke-width:1pt;stroke-opacity:1"
         transform="matrix(-0.8,0,0,-0.8,-10,0)"
         inkscape:connector-curvature="0" />
    </marker>
    <marker
       style="overflow:visible"
       id="marker8768"
       refX="0"
       refY="0"
       orient="auto">
      <path
         transform="matrix(-0.8,0,0,-0.8,-10,0)"
         style="fill:#787878;fill-opacity:1;fill-rule:evenodd;stroke:#787878;stroke-width:1pt;stroke-opacity:1"
         d="M 0,0 5,-5 -12.5,0 5,5 0,0 Z"
         id="path8770"
         inkscape:connector-curvature="0" />
    </marker>
    <marker
       orient="auto"
       refY="0"
       refX="0"
       id="marker8558"
       style="overflow:visible">
      <path
         id="path8560"
         d="M 0,0 5,-5 -12.5,0 5,5 0,0 Z"
         style="fill:#787878;fill-opacity:1;fill-rule:evenodd;stroke:#787878;stroke-width:1pt;stroke-opacity:1"
         transform="matrix(-0.8,0,0,-0.8,-10,0)"
         inkscape:connector-curvature="0" />
    </marker>
    <marker
       style="overflow:visible"
       id="marker8306"
       refX="0"
       refY="0"
       orient="auto">
      <path
         transform="matrix(-0.8,0,0,-0.8,-10,0)"
         style="fill:#787878;fill-opacity:1;fill-rule:evenodd;stroke:#787878;stroke-width:1pt;stroke-opacity:1"
         d="M 0,0 5,-5 -12.5,0 5,5 0,0 Z"
         id="path8308"
         inkscape:connector-curvature="0" />
    </marker>
    <marker
       style="overflow:visible"
       id="marker8090"
       refX="0"
       refY="0"
       orient="auto">
      <path
         transform="matrix(-0.8,0,0,-0.8,-10,0)"
         style="fill:#787878;fill-opacity:1;fill-rule:evenodd;stroke:#787878;stroke-width:1pt;stroke-opacity:1"
         d="M 0,0 5,-5 -12.5,0 5,5 0,0 Z"
         id="path8092"
         inkscape:connector-curvature="0" />
    </marker>
    <marker
       orient="auto"
       refY="0"
       refX="0"
       id="marker7838"
       style="overflow:visible">
      <path
         id="path7840"
         d="M 0,0 5,-5 -12.5,0 5,5 0,0 Z"
         style="fill:#787878;fill-opacity:1;fill-rule:evenodd;stroke:#787878;stroke-width:1pt;stroke-opacity:1"
         transform="matrix(-0.8,0,0,-0.8,-10,0)"
         inkscape:connector-curvature="0" />
    </marker>
    <marker
       style="overflow:visible"
       id="marker7634"
       refX="0"
       refY="0"
       orient="auto">
      <path
         transform="matrix(-0.8,0,0,-0.8,-10,0)"
         style="fill:#787878;fill-opacity:1;fill-rule:evenodd;stroke:#787878;stroke-width:1pt;stroke-opacity:1"
         d="M 0,0 5,-5 -12.5,0 5,5 0,0 Z"
         id="path7636"
         inkscape:connector-curvature="0" />
    </marker>
    <marker
       orient="auto"
       refY="0"
       refX="0"
       id="marker6056"
       style="overflow:visible">
      <path
         id="path6058"
         d="M 0,0 5,-5 -12.5,0 5,5 0,0 Z"
         style="fill:#787878;fill-opacity:1;fill-rule:evenodd;stroke:#787878;stroke-width:1pt;stroke-opacity:1"
         transform="matrix(-0.8,0,0,-0.8,-10,0)"
         inkscape:connector-curvature="0" />
    </marker>
    <marker
       style="overflow:visible"
       id="marker5822"
       refX="0"
       refY="0"
       orient="auto">
      <path
         transform="matrix(-0.8,0,0,-0.8,-10,0)"
         style="fill:#787878;fill-opacity:1;fill-rule:evenodd;stroke:#787878;stroke-width:1pt;stroke-opacity:1"
         d="M 0,0 5,-5 -12.5,0 5,5 0,0 Z"
         id="path5824"
         inkscape:connector-curvature="0" />
    </marker>
    <marker
       orient="auto"
       refY="0"
       refX="0"
       id="marker5570"
       style="overflow:visible">
      <path
         id="path5572"
         d="M 0,0 5,-5 -12.5,0 5,5 0,0 Z"
         style="fill:#787878;fill-opacity:1;fill-rule:evenodd;stroke:#787878;stroke-width:1pt;stroke-opacity:1"
         transform="matrix(-0.8,0,0,-0.8,-10,0)"
         inkscape:connector-curvature="0" />
    </marker>
    <marker
       style="overflow:visible"
       id="marker5432"
       refX="0"
       refY="0"
       orient="auto">
      <path
         transform="matrix(-0.8,0,0,-0.8,-10,0)"
         style="fill:#787878;fill-opacity:1;fill-rule:evenodd;stroke:#787878;stroke-width:1pt;stroke-opacity:1"
         d="M 0,0 5,-5 -12.5,0 5,5 0,0 Z"
         id="path5434"
         inkscape:connector-curvature="0" />
    </marker>
    <marker
       style="overflow:visible"
       id="Arrow2Lend"
       refX="0"
       refY="0"
       orient="auto">
      <path
         transform="matrix(-1.1,0,0,-1.1,-1.1,0)"
         d="M 8.7185878,4.0337352 -2.2072895,0.01601326 8.7185884,-4.0017078 c -1.7454984,2.3720609 -1.7354408,5.6174519 -6e-7,8.035443 z"
         style="fill-rule:evenodd;stroke-width:0.625;stroke-linejoin:round"
         id="path4342"
         inkscape:connector-curvature="0" />
    </marker>
    <marker
       orient="auto"
       refY="0"
       refX="0"
       id="marker5342"
       style="overflow:visible">
      <path
         id="path5344"
         style="fill:#000000;fill-opacity:0.06606625;fill-rule:evenodd;stroke:#000000;stroke-width:0.625;stroke-linejoin:round;stroke-opacity:1"
         d="M 8.7185878,4.0337352 -2.2072895,0.01601326 8.7185884,-4.0017078 c -1.7454984,2.3720609 -1.7354408,5.6174519 -6e-7,8.035443 z"
         transform="matrix(-1.1,0,0,-1.1,-1.1,0)"
         inkscape:connector-curvature="0" />
    </marker>
    <marker
       orient="auto"
       refY="0"
       refX="0"
       id="marker4981"
       style="overflow:visible">
      <path
         id="path4983"
         style="fill:#000000;fill-opacity:0.06606625;fill-rule:evenodd;stroke:#000000;stroke-width:0.625;stroke-linejoin:round;stroke-opacity:1"
         d="M 8.7185878,4.0337352 -2.2072895,0.01601326 8.7185884,-4.0017078 c -1.7454984,2.3720609 -1.7354408,5.6174519 -6e-7,8.035443 z"
         transform="matrix(-1.1,0,0,-1.1,-1.1,0)"
         inkscape:connector-curvature="0" />
    </marker>
    <marker
       style="overflow:visible"
       id="Arrow1Lend"
       refX="0"
       refY="0"
       orient="auto">
      <path
         transform="matrix(-0.8,0,0,-0.8,-10,0)"
         style="fill:#000000;fill-opacity:0.06606625;fill-rule:evenodd;stroke:#000000;stroke-width:1pt;stroke-opacity:1"
         d="M 0,0 5,-5 -12.5,0 5,5 0,0 Z"
         id="path4324"
         inkscape:connector-curvature="0" />
    </marker>
    <marker
       style="overflow:visible"
       id="Arrow1Lstart"
       refX="0"
       refY="0"
       orient="auto">
      <path
         transform="matrix(0.8,0,0,0.8,10,0)"
         style="fill:#000000;fill-opacity:1;fill-rule:evenodd;stroke:#000000;stroke-width:1pt;stroke-opacity:1"
         d="M 0,0 5,-5 -12.5,0 5,5 0,0 Z"
         id="path4321"
         inkscape:connector-curvature="0" />
    </marker>
    <radialGradient
       gradientUnits="userSpaceOnUse"
       r="25.5"
       fy="943.61218"
       fx="60.75"
       cy="943.61218"
       cx="60.75"
       id="radialGradient14271"
       xlink:href="#linearGradient14307"
       gradientTransform="translate(-33.250015,-697.61218)" />
    <radialGradient
       gradientUnits="userSpaceOnUse"
       r="25.5"
       fy="842.61218"
       fx="60.75"
       cy="842.61218"
       cx="60.75"
       id="radialGradient14273"
       xlink:href="#linearGradient14307"
       gradientTransform="translate(-33.250015,-697.61218)" />
    <radialGradient
       gradientUnits="userSpaceOnUse"
       r="25.5"
       fy="741.61218"
       fx="60.75"
       cy="741.61218"
       cx="60.75"
       id="radialGradient14275"
       xlink:href="#linearGradient14307"
       gradientTransform="translate(-30.25,-646.61218)" />
    <radialGradient
       gradientUnits="userSpaceOnUse"
       r="25.5"
       fy="682.36218"
       fx="194.25"
       cy="682.36218"
       cx="194.25"
       id="radialGradient14328"
       xlink:href="#linearGradient14360" />
    <radialGradient
       gradientUnits="userSpaceOnUse"
       r="25.5"
       fy="789.1955"
       fx="194.25"
       cy="789.1955"
       cx="194.25"
       id="radialGradient14342"
       xlink:href="#linearGradient14360" />
    <radialGradient
       gradientUnits="userSpaceOnUse"
       r="25.5"
       fy="896.02887"
       fx="194.25"
       cy="896.02887"
       cx="194.25"
       id="radialGradient14350"
       xlink:href="#linearGradient14360" />
    <radialGradient
       gradientUnits="userSpaceOnUse"
       r="25.5"
       fy="1002.8622"
       fx="194.25"
       cy="1002.8622"
       cx="194.25"
       id="radialGradient14358"
       xlink:href="#linearGradient14360" />
    <radialGradient
       gradientUnits="userSpaceOnUse"
       r="25.5"
       fy="792.11218"
       fx="327.75"
       cy="792.11218"
       cx="327.75"
       id="radialGradient14380"
       xlink:href="#linearGradient14390" />
    <radialGradient
       gradientUnits="userSpaceOnUse"
       r="25.5"
       fy="893.11218"
       fx="327.75"
       cy="893.11218"
       cx="327.75"
       id="radialGradient14402"
       xlink:href="#linearGradient14390" />
    <radialGradient
       inkscape:collect="always"
       xlink:href="#linearGradient14360"
       id="radialGradient4299"
       gradientUnits="userSpaceOnUse"
       cx="60.75"
       cy="741.61218"
       fx="60.75"
       fy="741.61218"
       r="25.5"
       gradientTransform="translate(239.78901,-645.41467)" />
    <radialGradient
       inkscape:collect="always"
       xlink:href="#linearGradient14360"
       id="radialGradient4301"
       gradientUnits="userSpaceOnUse"
       cx="60.75"
       cy="943.61218"
       fx="60.75"
       fy="943.61218"
       r="25.5"
       gradientTransform="translate(239.78901,-645.41467)" />
    <radialGradient
       inkscape:collect="always"
       xlink:href="#linearGradient14360"
       id="radialGradient4303"
       gradientUnits="userSpaceOnUse"
       cx="60.75"
       cy="842.61218"
       fx="60.75"
       fy="842.61218"
       r="25.5"
       gradientTransform="translate(239.78901,-645.41467)" />
    <radialGradient
       inkscape:collect="always"
       xlink:href="#linearGradient14390"
       id="radialGradient4416"
       gradientUnits="userSpaceOnUse"
       gradientTransform="translate(239.78901,-645.41467)"
       cx="60.75"
       cy="741.61218"
       fx="60.75"
       fy="741.61218"
       r="25.5" />
    <radialGradient
       inkscape:collect="always"
       xlink:href="#linearGradient14390"
       id="radialGradient4418"
       gradientUnits="userSpaceOnUse"
       gradientTransform="translate(239.78901,-645.41467)"
       cx="60.75"
       cy="943.61218"
       fx="60.75"
       fy="943.61218"
       r="25.5" />
    <radialGradient
       inkscape:collect="always"
       xlink:href="#linearGradient14390"
       id="radialGradient4420"
       gradientUnits="userSpaceOnUse"
       gradientTransform="translate(239.78901,-645.41467)"
       cx="60.75"
       cy="842.61218"
       fx="60.75"
       fy="842.61218"
       r="25.5" />
  </defs>
  <metadata
     id="metadata7">
    <rdf:RDF>
      <cc:Work
         rdf:about="">
        <dc:format>image/svg+xml</dc:format>
        <dc:type
           rdf:resource="http://purl.org/dc/dcmitype/StillImage" />
        <dc:title />
      </cc:Work>
    </rdf:RDF>
  </metadata>
  <circle
     r="25"
     cy="246"
     cx="27.499985"
     id="circle3408"
     style="fill:url(#radialGradient14271);fill-opacity:1;fill-rule:nonzero;stroke:#000000;stroke-width:1px;stroke-linecap:butt;stroke-linejoin:miter;stroke-opacity:1" />
  <circle
     r="25"
     cy="145"
     cx="27.499985"
     id="circle4251"
     style="fill:url(#radialGradient14273);fill-opacity:1;fill-rule:nonzero;stroke:#000000;stroke-width:1px;stroke-linecap:butt;stroke-linejoin:miter;stroke-opacity:1" />
  <path
     inkscape:connector-curvature="0"
     id="path5568"
     d="M 52.749985,144.24998 103.71342,97.040028"
     style="fill:none;fill-rule:evenodd;stroke:#787878;stroke-width:1px;stroke-linecap:butt;stroke-linejoin:miter;stroke-opacity:1;marker-end:url(#marker5570)"
     sodipodi:nodetypes="cc" />
  <path
     inkscape:connector-curvature="0"
     style="fill:none;fill-rule:evenodd;stroke:#787878;stroke-width:1px;stroke-linecap:butt;stroke-linejoin:miter;stroke-opacity:1;marker-end:url(#marker5822)"
     d="M 54.249985,245.24998 102.41715,202.24376"
     id="path5820"
     sodipodi:nodetypes="cc" />
  <path
     inkscape:connector-curvature="0"
     id="path6054"
     d="m 220.78032,233.1761 49.46344,-37.02412"
     style="fill:none;fill-rule:evenodd;stroke:#787878;stroke-width:1px;stroke-linecap:butt;stroke-linejoin:miter;stroke-opacity:1;marker-end:url(#marker6056)"
     sodipodi:nodetypes="cc" />
  <path
     inkscape:connector-curvature="0"
     style="fill:none;fill-rule:evenodd;stroke:#787878;stroke-width:1px;stroke-linecap:butt;stroke-linejoin:miter;stroke-opacity:1;marker-end:url(#marker7634)"
     d="M 220.18157,128.07735 270.24376,94.047001"
     id="path7632"
     sodipodi:nodetypes="cc" />
  <path
     inkscape:connector-curvature="0"
     id="path7836"
     d="m 219.66912,337.84874 53.46967,-37.50698"
     style="fill:none;fill-rule:evenodd;stroke:#787878;stroke-width:1px;stroke-linecap:butt;stroke-linejoin:miter;stroke-opacity:1;marker-end:url(#marker7838)"
     sodipodi:nodetypes="cc" />
  <path
     inkscape:connector-curvature="0"
     style="fill:none;fill-rule:evenodd;stroke:#787878;stroke-width:1px;stroke-linecap:butt;stroke-linejoin:miter;stroke-opacity:1;marker-end:url(#marker8090)"
     d="m 219.66913,253.42412 52.96965,43.80494"
     id="path8088"
     sodipodi:nodetypes="cc" />
  <path
     inkscape:connector-curvature="0"
     style="fill:none;fill-rule:evenodd;stroke:#787878;stroke-width:1px;stroke-linecap:butt;stroke-linejoin:miter;stroke-opacity:1;marker-end:url(#marker8306)"
     d="m 220.18156,149.949 50.66096,43.794"
     id="path8304"
     sodipodi:nodetypes="cc" />
  <path
     inkscape:connector-curvature="0"
     id="path8976"
     d="m 220.37908,41.23132 50.36468,49.519412"
     style="fill:none;fill-rule:evenodd;stroke:#787878;stroke-width:1px;stroke-linecap:butt;stroke-linejoin:miter;stroke-opacity:1;marker-end:url(#marker8978)"
     sodipodi:nodetypes="cc" />
  <path
     inkscape:connector-curvature="0"
     style="fill:none;fill-rule:evenodd;stroke:#787878;stroke-width:1px;stroke-linecap:butt;stroke-linejoin:miter;stroke-opacity:1;marker-end:url(#marker10808)"
     d="m 52.749985,144.24998 49.765925,42.02488"
     id="path10806"
     sodipodi:nodetypes="cc" />
  <path
     inkscape:connector-curvature="0"
     id="path11532"
     d="m 54.249985,245.24998 47.765925,44.12989"
     style="fill:none;fill-rule:evenodd;stroke:#787878;stroke-width:1px;stroke-linecap:butt;stroke-linejoin:miter;stroke-opacity:1;marker-end:url(#marker11534)"
     sodipodi:nodetypes="cc" />
  <rect
     style="fill:none;fill-opacity:1;fill-rule:nonzero;stroke:#323232;stroke-width:1.5;stroke-linecap:round;stroke-linejoin:round;stroke-miterlimit:4;stroke-dasharray:none;stroke-dashoffset:0;stroke-opacity:1"
     id="rect14721"
     width="25"
     height="350.00003"
     x="106.99998"
     y="-363.77347"
     ry="5.0000005"
     rx="4.9999924"
     transform="scale(1,-1)" />
  <text
     sodipodi:linespacing="125%"
     xml:space="preserve"
     style="font-style:normal;font-weight:normal;font-size:40px;line-height:125%;font-family:sans-serif;letter-spacing:0px;word-spacing:0px;fill:#000000;fill-opacity:1;stroke:none;stroke-width:1px;stroke-linecap:butt;stroke-linejoin:miter;stroke-opacity:1"
     x="1.2695161"
     y="399.75"
     id="text14723"><tspan
       id="tspan14725"
       x="1.2695161"
       y="399.75"
       style="font-style:normal;font-variant:normal;font-weight:normal;font-stretch:normal;font-size:20px;font-family:Verdana;-inkscape-font-specification:Verdana;fill:#323232;fill-opacity:1">input</tspan></text>
  <text
     sodipodi:linespacing="125%"
     id="text14733"
     y="399.28992"
     x="93.602463"
     style="font-style:normal;font-weight:normal;font-size:40px;line-height:125%;font-family:sans-serif;letter-spacing:0px;word-spacing:0px;fill:#000000;fill-opacity:1;stroke:none;stroke-width:1px;stroke-linecap:butt;stroke-linejoin:miter;stroke-opacity:1"
     xml:space="preserve"><tspan
       style="font-style:normal;font-variant:normal;font-weight:normal;font-stretch:normal;font-size:20px;font-family:Verdana;-inkscape-font-specification:Verdana;fill:#323232;fill-opacity:1"
       y="399.28992"
       x="93.602463"
       id="tspan14735">hidden layers</tspan></text>
  <text
     sodipodi:linespacing="125%"
     y="110.19495"
     x="124.73778"
     style="font-style:normal;font-weight:normal;font-size:40px;line-height:125%;font-family:sans-serif;letter-spacing:0px;word-spacing:0px;fill:#000000;fill-opacity:1;stroke:none;stroke-width:1px;stroke-linecap:butt;stroke-linejoin:miter;stroke-opacity:1"
     xml:space="preserve"
     id="text4354"><tspan
       style="font-style:normal;font-variant:normal;font-weight:normal;font-stretch:normal;font-size:20px;font-family:Verdana;-inkscape-font-specification:Verdana;fill:#323232;fill-opacity:1"
       y="110.19495"
       x="124.73778"
       id="tspan4356" /></text>
  <text
     sodipodi:linespacing="125%"
     y="158.19495"
     x="124.73778"
     style="font-style:normal;font-weight:normal;font-size:40px;line-height:125%;font-family:sans-serif;letter-spacing:0px;word-spacing:0px;fill:#000000;fill-opacity:1;stroke:none;stroke-width:1px;stroke-linecap:butt;stroke-linejoin:miter;stroke-opacity:1"
     xml:space="preserve"
     id="text4340"><tspan
       style="font-style:normal;font-variant:normal;font-weight:normal;font-stretch:normal;font-size:20px;font-family:Verdana;-inkscape-font-specification:Verdana;fill:#323232;fill-opacity:1"
       y="158.19495"
       x="124.73778"
       id="tspan4342" /></text>
  <text
     sodipodi:linespacing="125%"
     xml:space="preserve"
     style="font-style:normal;font-weight:normal;font-size:40px;line-height:125%;font-family:sans-serif;letter-spacing:0px;word-spacing:0px;fill:#000000;fill-opacity:1;stroke:none;stroke-width:1px;stroke-linecap:butt;stroke-linejoin:miter;stroke-opacity:1"
     x="265.34082"
     y="399.45215"
     id="text14737"><tspan
       id="tspan14739"
       x="265.34082"
       y="399.45215"
       style="font-style:normal;font-variant:normal;font-weight:normal;font-stretch:normal;font-size:20px;font-family:Verdana;-inkscape-font-specification:Verdana;fill:#323232;fill-opacity:1">output</tspan></text>
  <g
     id="g4425"
     transform="translate(-3.0000151,-3.0000023)">
    <circle
       style="fill:url(#radialGradient4299);fill-opacity:1;fill-rule:nonzero;stroke:#000000;stroke-width:1px;stroke-linecap:butt;stroke-linejoin:miter;stroke-opacity:1"
       id="circle4293"
       cx="300.539"
       cy="96.19751"
       r="25" />
    <circle
       r="25"
       cy="298.19751"
       cx="300.539"
       id="circle4295"
       style="fill:url(#radialGradient4301);fill-opacity:1;fill-rule:nonzero;stroke:#000000;stroke-width:1px;stroke-linecap:butt;stroke-linejoin:miter;stroke-opacity:1" />
    <circle
       r="25"
       cy="197.19751"
       cx="300.539"
       id="circle4297"
       style="fill:url(#radialGradient4303);fill-opacity:1;fill-rule:nonzero;stroke:#000000;stroke-width:1px;stroke-linecap:butt;stroke-linejoin:miter;stroke-opacity:1" />
  </g>
  <g
     id="g4408"
     transform="translate(126.93006,-2.4012462)">
    <circle
       r="25"
       cy="96.19751"
       cx="300.539"
       id="circle4410"
       style="fill:url(#radialGradient4416);fill-opacity:1;fill-rule:nonzero;stroke:#000000;stroke-width:1px;stroke-linecap:butt;stroke-linejoin:miter;stroke-opacity:1" />
    <circle
       style="fill:url(#radialGradient4418);fill-opacity:1;fill-rule:nonzero;stroke:#000000;stroke-width:1px;stroke-linecap:butt;stroke-linejoin:miter;stroke-opacity:1"
       id="circle4412"
       cx="300.539"
       cy="298.19751"
       r="25" />
    <circle
       style="fill:url(#radialGradient4420);fill-opacity:1;fill-rule:nonzero;stroke:#000000;stroke-width:1px;stroke-linecap:butt;stroke-linejoin:miter;stroke-opacity:1"
       id="circle4414"
       cx="300.539"
       cy="197.19751"
       r="25" />
  </g>
  <path
     sodipodi:nodetypes="cc"
     style="fill:none;fill-rule:evenodd;stroke:#787878;stroke-width:1px;stroke-linecap:butt;stroke-linejoin:miter;stroke-opacity:1;marker-end:url(#marker8978)"
     d="m 325.76015,94.520615 73.71617,-0.177348"
     id="path4430"
     inkscape:connector-curvature="0" />
  <path
     inkscape:connector-curvature="0"
     id="path4432"
     d="m 326.35891,195.7104 73.71617,-0.17735"
     style="fill:none;fill-rule:evenodd;stroke:#787878;stroke-width:1px;stroke-linecap:butt;stroke-linejoin:miter;stroke-opacity:1;marker-end:url(#marker8978)"
     sodipodi:nodetypes="cc" />
  <path
     sodipodi:nodetypes="cc"
     style="fill:none;fill-rule:evenodd;stroke:#787878;stroke-width:1px;stroke-linecap:butt;stroke-linejoin:miter;stroke-opacity:1;marker-end:url(#marker8978)"
     d="m 325.76015,296.30143 73.71617,-0.17735"
     id="path4434"
     inkscape:connector-curvature="0" />
  <g
     id="g4481">
    <text
       sodipodi:linespacing="125%"
       xml:space="preserve"
       style="font-style:normal;font-weight:normal;font-size:40px;line-height:125%;font-family:sans-serif;letter-spacing:0px;word-spacing:0px;fill:#000000;fill-opacity:1;stroke:none;stroke-width:1px;stroke-linecap:butt;stroke-linejoin:miter;stroke-opacity:1"
       x="354.07413"
       y="88.098961"
       id="text4439"><tspan
         id="tspan4441"
         x="354.07413"
         y="88.098961"
         style="font-style:normal;font-variant:normal;font-weight:normal;font-stretch:normal;font-size:20px;font-family:Verdana;-inkscape-font-specification:Verdana;fill:#323232;fill-opacity:1">id</tspan></text>
    <text
       id="text4443"
       y="188.09123"
       x="344.91397"
       style="font-style:normal;font-weight:normal;font-size:40px;line-height:125%;font-family:sans-serif;letter-spacing:0px;word-spacing:0px;fill:#000000;fill-opacity:1;stroke:none;stroke-width:1px;stroke-linecap:butt;stroke-linejoin:miter;stroke-opacity:1"
       xml:space="preserve"
       sodipodi:linespacing="125%"><tspan
         style="font-style:normal;font-variant:normal;font-weight:normal;font-stretch:normal;font-size:20px;font-family:Verdana;-inkscape-font-specification:Verdana;fill:#323232;fill-opacity:1"
         y="188.09123"
         x="344.91397"
         id="tspan4445">exp</tspan></text>
    <text
       sodipodi:linespacing="125%"
       xml:space="preserve"
       style="font-style:normal;font-weight:normal;font-size:40px;line-height:125%;font-family:sans-serif;letter-spacing:0px;word-spacing:0px;fill:#000000;fill-opacity:1;stroke:none;stroke-width:1px;stroke-linecap:butt;stroke-linejoin:miter;stroke-opacity:1"
       x="322.41397"
       y="288.68225"
       id="text4447"><tspan
         id="tspan4449"
         x="322.41397"
         y="288.68225"
         style="font-style:normal;font-variant:normal;font-weight:normal;font-stretch:normal;font-size:20px;font-family:Verdana;-inkscape-font-specification:Verdana;fill:#323232;fill-opacity:1">softmax</tspan></text>
  </g>
  <flowRoot
     xml:space="preserve"
     id="flowRoot4455"
     style="font-style:normal;font-weight:normal;font-size:40px;line-height:125%;font-family:sans-serif;letter-spacing:0px;word-spacing:0px;fill:#000000;fill-opacity:1;stroke:none;stroke-width:1px;stroke-linecap:butt;stroke-linejoin:miter;stroke-opacity:1"
     transform="translate(-3.0398371e-5,1.1920929e-7)"><flowRegion
       id="flowRegion4457"><rect
         id="rect4459"
         width="105"
         height="45"
         x="392"
         y="423.77344" /></flowRegion><flowPara
       id="flowPara4461" /></flowRoot>  <flowRoot
     xml:space="preserve"
     id="flowRoot4463"
     style="font-style:normal;font-weight:normal;font-size:40px;line-height:125%;font-family:sans-serif;letter-spacing:0px;word-spacing:0px;fill:#000000;fill-opacity:1;stroke:none;stroke-width:1px;stroke-linecap:butt;stroke-linejoin:miter;stroke-opacity:1"
     transform="translate(-3.0398371e-5,1.1920929e-7)"><flowRegion
       id="flowRegion4465"><rect
         id="rect4467"
         width="190"
         height="110"
         x="267"
         y="463.77344" /></flowRegion><flowPara
       id="flowPara4469" /></flowRoot>  <flowRoot
     xml:space="preserve"
     id="flowRoot4471"
     style="font-style:normal;font-variant:normal;font-weight:normal;font-stretch:normal;font-size:20px;line-height:125%;font-family:Verdana;-inkscape-font-specification:Verdana;letter-spacing:0px;word-spacing:0px;fill:#000000;fill-opacity:1;stroke:none;stroke-width:1px;stroke-linecap:butt;stroke-linejoin:miter;stroke-opacity:1"
     transform="translate(180.22556,-108.37486)"><flowRegion
       id="flowRegion4473"><rect
         id="rect4475"
         width="120.00002"
         height="50.000031"
         x="192"
         y="463.77344"
         style="font-style:normal;font-variant:normal;font-weight:normal;font-stretch:normal;font-size:20px;font-family:Verdana;-inkscape-font-specification:Verdana" /></flowRegion><flowPara
       id="flowPara4477">distribution</flowPara><flowPara
       id="flowPara4479">parameters</flowPara></flowRoot>  <g
     id="content"
     transform="matrix(2.56,0,0,-2.56,-712.74163,1779.7655)"
     xml:space="preserve"
     stroke-miterlimit="10.433"
     font-style="normal"
     font-variant="normal"
     font-weight="normal"
     font-stretch="normal"
     font-size-adjust="none"
     letter-spacing="normal"
     word-spacing="normal"
     ns0:text="\\begin{align*}\na^\\mu_{j,k}\n\\end{align*}"
     ns0:preamble="/Users/jotterbach/.inkscape/preambel.ini"
     style="font-style:normal;font-variant:normal;font-weight:normal;font-stretch:normal;letter-spacing:normal;word-spacing:normal;text-anchor:start;fill:none;fill-opacity:1;fill-rule:evenodd;stroke:#000000;stroke-linecap:butt;stroke-linejoin:miter;stroke-miterlimit:10.43299961;stroke-dasharray:none;stroke-dashoffset:0;stroke-opacity:1"><path
       style="fill:#000000;stroke-width:0"
       inkscape:connector-curvature="0"
       d="m 391.1,660.99 -0.02,0.03 -0.02,0.04 -0.02,0.03 -0.02,0.03 -0.02,0.03 -0.02,0.04 -0.02,0.03 -0.02,0.02 -0.02,0.03 -0.03,0.03 -0.02,0.03 -0.02,0.02 -0.03,0.03 -0.03,0.02 -0.02,0.02 -0.03,0.03 -0.03,0.02 -0.03,0.02 -0.03,0.01 -0.03,0.02 -0.03,0.02 -0.03,0.01 -0.04,0.02 -0.03,0.01 -0.04,0.01 -0.03,0.01 -0.04,0.01 -0.04,0 -0.04,0.01 -0.04,0 -0.04,0.01 -0.04,0 c -1.16,0 -2.4,-1.47 -2.4,-2.91 0,-0.94 0.55,-1.59 1.33,-1.59 l 0.02,0.21 c -0.5,0 -0.64,0.55 -0.64,0.94 0,0.5 0.32,1.72 0.55,2.17 0.31,0.59 0.75,0.96 1.15,0.96 0.65,0 0.79,-0.82 0.79,-0.88 0,-0.06 -0.02,-0.12 -0.03,-0.17 l -0.5,-1.94 c -0.05,-0.18 -0.05,-0.2 -0.2,-0.37 -0.44,-0.55 -0.85,-0.71 -1.12,-0.71 l -0.02,-0.21 c 0.19,0 0.69,0.03 1.29,0.74 0.08,-0.42 0.43,-0.74 0.9,-0.74 0.35,0 0.58,0.22 0.74,0.54 0.17,0.36 0.3,0.97 0.3,0.99 0,0.1 -0.09,0.1 -0.12,0.1 -0.1,0 -0.11,-0.04 -0.14,-0.18 -0.17,-0.65 -0.35,-1.24 -0.75,-1.24 -0.27,0 -0.3,0.26 -0.3,0.46 0,0.22 0.02,0.3 0.13,0.74 0.11,0.41 0.13,0.51 0.22,0.89 l 0.35,1.39 c 0.07,0.28 0.07,0.3 0.07,0.34 0,0.17 -0.12,0.27 -0.29,0.27 -0.24,0 -0.38,-0.22 -0.41,-0.44 z"
       id="path4992" /><path
       style="fill:#000000;stroke-width:0"
       inkscape:connector-curvature="0"
       d="m 393.03,660.9 -0.01,-0.01 0,0 0,-0.01 0,-0.01 0,-0.01 -0.01,-0.01 0,-0.01 0,0 0,-0.01 0,-0.01 0,0 0,-0.01 -0.01,0 0,-0.01 0,0 0,-0.01 0,0 0,0 0,-0.01 0,0 0,0 0,-0.01 0,0 0,0 0,0 0,-0.01 0,0 0,0 0,0 0,0 0,0 0,0 c 0,-0.16 0.12,-0.23 0.24,-0.23 0.25,0 0.3,0.23 0.33,0.35 0.01,0.04 0.15,0.59 0.32,1.28 0.22,-0.15 0.5,-0.21 0.75,-0.21 0.59,0 0.98,0.49 1,0.5 0.13,-0.48 0.61,-0.5 0.72,-0.5 0.25,0 0.42,0.16 0.55,0.37 0.15,0.27 0.24,0.67 0.24,0.7 0,0.09 -0.09,0.09 -0.11,0.09 -0.1,0 -0.11,-0.03 -0.15,-0.22 -0.09,-0.33 -0.22,-0.74 -0.51,-0.74 -0.18,0 -0.23,0.15 -0.23,0.34 0,0.12 0.05,0.37 0.1,0.55 0.05,0.19 0.12,0.47 0.15,0.62 l 0.17,0.62 c 0.04,0.18 0.11,0.48 0.11,0.52 0,0.14 -0.11,0.22 -0.23,0.22 -0.07,0 -0.21,-0.04 -0.28,-0.17 -0.02,-0.04 -0.08,-0.26 -0.11,-0.4 l -0.15,-0.58 -0.22,-0.87 c -0.04,-0.17 -0.04,-0.18 -0.11,-0.28 -0.21,-0.3 -0.52,-0.57 -0.92,-0.57 -0.57,0 -0.57,0.49 -0.57,0.62 0,0.18 0.02,0.27 0.12,0.64 0.07,0.31 0.09,0.36 0.15,0.63 l 0.1,0.39 c 0.04,0.15 0.11,0.41 0.11,0.44 0,0.12 -0.1,0.22 -0.24,0.22 -0.25,0 -0.31,-0.24 -0.34,-0.33 z"
       id="path4994" /><path
       style="fill:#000000;stroke-width:0"
       inkscape:connector-curvature="0"
       d="m 395.71,658.58 0,0.01 0,0.01 0,0.01 -0.01,0.01 0,0.01 0,0.01 0,0.02 -0.01,0.01 0,0.01 -0.01,0.01 0,0.01 -0.01,0.01 -0.01,0.01 0,0.01 -0.01,0.01 -0.01,0.01 -0.01,0.01 -0.01,0.01 -0.01,0.01 -0.01,0.01 -0.01,0.01 -0.01,0 -0.01,0.01 -0.02,0.01 -0.01,0 -0.01,0.01 -0.02,0 -0.01,0 -0.02,0.01 -0.02,0 -0.01,0 -0.02,0 c -0.2,0 -0.39,-0.19 -0.39,-0.38 0,-0.11 0.08,-0.27 0.28,-0.27 0.19,0 0.39,0.18 0.39,0.39 z"
       id="path4996" /><path
       style="fill:#000000;stroke-width:0"
       inkscape:connector-curvature="0"
       d="m 394.23,653.89 -0.01,-0.05 -0.01,-0.04 -0.02,-0.04 -0.01,-0.05 -0.02,-0.04 -0.02,-0.04 -0.02,-0.04 -0.02,-0.04 -0.02,-0.04 -0.03,-0.04 -0.02,-0.04 -0.03,-0.03 -0.02,-0.04 -0.03,-0.03 -0.03,-0.03 -0.03,-0.03 -0.03,-0.03 -0.03,-0.03 -0.03,-0.03 -0.03,-0.02 -0.04,-0.02 -0.03,-0.03 -0.03,-0.02 -0.04,-0.01 -0.04,-0.02 -0.03,-0.01 -0.04,-0.02 -0.04,-0.01 -0.03,0 -0.04,-0.01 -0.04,0 -0.04,0 c -0.09,0 -0.17,0.01 -0.25,0.04 0.18,0.08 0.24,0.25 0.24,0.35 0,0.17 -0.13,0.26 -0.27,0.26 -0.22,0 -0.4,-0.19 -0.4,-0.41 0,-0.27 0.27,-0.44 0.69,-0.44 0.42,0 1.23,0.25 1.45,1.1 l 0.63,2.49 c 0.02,0.08 0.03,0.14 0.03,0.24 0,0.39 -0.33,0.66 -0.74,0.66 -0.78,0 -1.22,-0.97 -1.22,-1.07 0,-0.09 0.09,-0.09 0.12,-0.09 0.08,0 0.09,0.02 0.13,0.13 0.18,0.4 0.54,0.83 0.94,0.83 0.18,0 0.24,-0.12 0.24,-0.34 0,-0.08 -0.01,-0.17 -0.02,-0.21 z"
       id="path4998" /><path
       style="fill:#000000;stroke-width:0"
       inkscape:connector-curvature="0"
       d="m 397.39,654.34 0,-0.07 0,-0.08 -0.01,-0.07 -0.01,-0.08 -0.01,-0.03 0,-0.04 -0.01,-0.04 -0.01,-0.04 -0.01,-0.04 -0.01,-0.04 -0.01,-0.04 -0.02,-0.04 -0.01,-0.04 -0.02,-0.04 -0.01,-0.04 -0.02,-0.04 -0.03,-0.04 -0.02,-0.05 -0.02,-0.04 -0.03,-0.04 -0.03,-0.04 -0.03,-0.04 -0.03,-0.04 -0.03,-0.04 -0.04,-0.05 -0.04,-0.04 -0.04,-0.04 -0.04,-0.04 c -0.03,-0.03 -0.05,-0.05 -0.05,-0.09 0,-0.04 0.05,-0.09 0.09,-0.09 0.1,0 0.69,0.55 0.69,1.38 0,0.43 -0.16,0.76 -0.48,0.76 -0.23,0 -0.4,-0.18 -0.4,-0.4 0,-0.22 0.16,-0.4 0.4,-0.4 0.17,0 0.28,0.11 0.29,0.11 z"
       id="path5000" /><path
       style="fill:#000000;stroke-width:0"
       inkscape:connector-curvature="0"
       d="m 400.47,658.85 0,0 0,0 0,0 0,0 0,0 0,0 0,0 0,0.01 0,0 0,0 0,0.01 0,0 0,0 0.01,0.01 0,0 0,0.01 0,0 0,0.01 0,0.01 0,0 0,0 0.01,0.01 0,0 0,0.01 0,0 0,0.01 0,0 0,0 0,0.01 0,0 0,0 0,0 0,0 0,0 0,0 0,0.01 0,0 0,0 0,0 0,0 0,0 c 0,0.03 -0.02,0.1 -0.11,0.1 -0.14,0 -0.71,-0.06 -0.89,-0.07 -0.06,-0.01 -0.15,-0.02 -0.15,-0.16 0,-0.1 0.09,-0.1 0.18,-0.1 0.33,0 0.33,-0.05 0.33,-0.11 0,-0.04 -0.01,-0.09 -0.02,-0.15 l -0.99,-3.93 c -0.03,-0.13 -0.03,-0.14 -0.03,-0.16 0,-0.1 0.08,-0.22 0.24,-0.22 0.18,0 0.27,0.14 0.31,0.29 0.02,0.03 0.32,1.25 0.35,1.35 0.49,-0.05 0.89,-0.21 0.89,-0.57 0,-0.03 0,-0.07 -0.02,-0.14 -0.02,-0.1 -0.02,-0.14 -0.02,-0.21 0,-0.5 0.4,-0.72 0.73,-0.72 0.68,0 0.89,1.06 0.89,1.06 0,0.1 -0.09,0.1 -0.11,0.1 -0.1,0 -0.11,-0.04 -0.14,-0.17 -0.08,-0.3 -0.27,-0.8 -0.61,-0.8 -0.19,0 -0.25,0.18 -0.25,0.37 0,0.12 0,0.13 0.04,0.31 0.01,0.02 0.04,0.14 0.04,0.21 0,0.62 -0.84,0.72 -1.13,0.74 0.2,0.13 0.46,0.36 0.58,0.46 0.35,0.34 0.7,0.66 1.09,0.66 0.08,0 0.18,-0.02 0.23,-0.09 -0.3,-0.05 -0.36,-0.28 -0.36,-0.39 0,-0.15 0.12,-0.26 0.28,-0.26 0.19,0 0.39,0.16 0.39,0.45 0,0.23 -0.16,0.49 -0.53,0.49 -0.4,0 -0.76,-0.29 -1.12,-0.62 -0.29,-0.27 -0.52,-0.49 -0.8,-0.61 z"
       id="path5002" /></g>  <g
     style="font-style:normal;font-variant:normal;font-weight:normal;font-stretch:normal;letter-spacing:normal;word-spacing:normal;text-anchor:start;fill:none;fill-opacity:1;fill-rule:evenodd;stroke:#000000;stroke-linecap:butt;stroke-linejoin:miter;stroke-miterlimit:10.43299961;stroke-dasharray:none;stroke-dashoffset:0;stroke-opacity:1"
     ns0:preamble="/Users/jotterbach/.inkscape/preambel.ini"
     ns0:text="\\begin{align*}\na^\\sigma_{j}\n\\end{align*}"
     word-spacing="normal"
     letter-spacing="normal"
     font-size-adjust="none"
     font-stretch="normal"
     font-weight="normal"
     font-variant="normal"
     font-style="normal"
     stroke-miterlimit="10.433"
     xml:space="preserve"
     transform="matrix(2.56,0,0,-2.56,-713.75265,1881.2961)"
     id="g5317"><path
       style="fill:#000000;stroke-width:0"
       inkscape:connector-curvature="0"
       id="path5319"
       d="m 393.68,660.99 -0.01,0.03 -0.02,0.04 -0.02,0.03 -0.02,0.03 -0.02,0.03 -0.02,0.04 -0.02,0.03 -0.02,0.02 -0.03,0.03 -0.02,0.03 -0.02,0.03 -0.03,0.02 -0.02,0.03 -0.03,0.02 -0.03,0.02 -0.02,0.03 -0.03,0.02 -0.03,0.02 -0.03,0.01 -0.03,0.02 -0.04,0.02 -0.03,0.01 -0.03,0.02 -0.04,0.01 -0.03,0.01 -0.04,0.01 -0.03,0.01 -0.04,0 -0.04,0.01 -0.04,0 -0.04,0.01 -0.04,0 c -1.17,0 -2.4,-1.47 -2.4,-2.91 0,-0.94 0.55,-1.59 1.32,-1.59 l 0.02,0.21 c -0.49,0 -0.63,0.55 -0.63,0.94 0,0.5 0.31,1.72 0.54,2.17 0.31,0.59 0.76,0.96 1.16,0.96 0.64,0 0.78,-0.82 0.78,-0.88 0,-0.06 -0.02,-0.12 -0.03,-0.17 l -0.49,-1.94 c -0.05,-0.18 -0.05,-0.2 -0.2,-0.37 -0.44,-0.55 -0.85,-0.71 -1.13,-0.71 l -0.02,-0.21 c 0.2,0 0.7,0.03 1.3,0.74 0.08,-0.42 0.42,-0.74 0.9,-0.74 0.35,0 0.58,0.22 0.74,0.54 0.17,0.36 0.3,0.97 0.3,0.99 0,0.1 -0.09,0.1 -0.12,0.1 -0.1,0 -0.11,-0.04 -0.14,-0.18 -0.17,-0.65 -0.35,-1.24 -0.76,-1.24 -0.27,0 -0.3,0.26 -0.3,0.46 0,0.22 0.02,0.3 0.13,0.74 0.11,0.41 0.13,0.51 0.22,0.89 l 0.36,1.39 c 0.07,0.28 0.07,0.3 0.07,0.34 0,0.17 -0.12,0.27 -0.29,0.27 -0.24,0 -0.39,-0.22 -0.42,-0.44 z" /><path
       style="fill:#000000;stroke-width:0"
       inkscape:connector-curvature="0"
       id="path5321"
       d="m 399.31,663.87 0.01,0 0.01,0 0.01,0 0.01,0 0.01,0 0.01,0 0.01,0 0.01,0 0.01,0 0.01,0 0.01,0.01 0.01,0 0,0 0.01,0 0.01,0 0.01,0 0,0 0.01,0 0.01,0 0.01,0.01 0,0 0.01,0 0.01,0 0,0.01 0.01,0 0.01,0 0,0.01 0.01,0 0.01,0 0.01,0.01 0,0 0.01,0.01 c 0.09,0.08 0.11,0.17 0.11,0.22 0,0.2 -0.18,0.2 -0.3,0.2 l -1.78,0 c -1.12,0 -1.95,-1.1 -1.95,-1.94 0,-0.64 0.48,-1.13 1.19,-1.13 l 0.01,0.19 c -0.38,0 -0.69,0.25 -0.69,0.75 0,0.21 0.12,1.65 1.32,1.65 0.36,0 0.72,-0.13 0.72,-0.66 0,-0.12 -0.06,-0.75 -0.41,-1.21 -0.29,-0.39 -0.68,-0.53 -0.94,-0.53 l 0,0 -0.01,-0.19 c 0.88,0 1.88,0.79 1.88,1.86 0,0.11 0,0.42 -0.21,0.73 z" /><path
       style="fill:#000000;stroke-width:0"
       inkscape:connector-curvature="0"
       id="path5323"
       d="m 398.3,659.12 -0.01,0.01 0,0.01 0,0.01 0,0.01 0,0.01 0,0.02 -0.01,0.01 0,0.01 -0.01,0.01 0,0.01 -0.01,0.01 0,0.01 -0.01,0.01 -0.01,0.01 -0.01,0.01 0,0.01 -0.01,0.01 -0.01,0.01 -0.01,0.01 -0.01,0.01 -0.01,0.01 -0.02,0 -0.01,0.01 -0.01,0.01 -0.01,0 -0.02,0.01 -0.01,0 -0.02,0.01 -0.01,0 -0.02,0 -0.02,0 -0.01,0 c -0.2,0 -0.39,-0.19 -0.39,-0.38 0,-0.11 0.08,-0.26 0.27,-0.26 0.19,0 0.4,0.18 0.4,0.38 z" /><path
       style="fill:#000000;stroke-width:0"
       inkscape:connector-curvature="0"
       id="path5325"
       d="m 396.82,654.43 -0.01,-0.04 -0.02,-0.05 -0.01,-0.04 -0.02,-0.04 -0.01,-0.05 -0.02,-0.04 -0.02,-0.04 -0.02,-0.04 -0.03,-0.04 -0.02,-0.04 -0.02,-0.03 -0.03,-0.04 -0.03,-0.03 -0.02,-0.04 -0.03,-0.03 -0.03,-0.03 -0.03,-0.03 -0.03,-0.03 -0.03,-0.02 -0.04,-0.03 -0.03,-0.02 -0.03,-0.02 -0.04,-0.02 -0.03,-0.02 -0.04,-0.02 -0.03,-0.01 -0.04,-0.01 -0.04,-0.01 -0.04,-0.01 -0.03,-0.01 -0.04,0 -0.04,0 c -0.09,0 -0.17,0.01 -0.25,0.04 0.18,0.08 0.24,0.25 0.24,0.36 0,0.16 -0.14,0.25 -0.27,0.25 -0.22,0 -0.4,-0.19 -0.4,-0.41 0,-0.26 0.27,-0.44 0.69,-0.44 0.42,0 1.23,0.25 1.45,1.1 l 0.62,2.49 c 0.02,0.08 0.04,0.14 0.04,0.24 0,0.39 -0.33,0.66 -0.75,0.66 -0.77,0 -1.22,-0.97 -1.22,-1.06 0,-0.1 0.1,-0.1 0.12,-0.1 0.09,0 0.09,0.03 0.14,0.13 0.18,0.4 0.54,0.83 0.94,0.83 0.18,0 0.24,-0.11 0.24,-0.34 0,-0.07 -0.02,-0.17 -0.02,-0.21 z" /></g>  <g
     id="g5622"
     transform="matrix(2.56,0,0,-2.56,-713.23276,1980.603)"
     xml:space="preserve"
     stroke-miterlimit="10.433"
     font-style="normal"
     font-variant="normal"
     font-weight="normal"
     font-stretch="normal"
     font-size-adjust="none"
     letter-spacing="normal"
     word-spacing="normal"
     ns0:text="\\begin{align*}\na^\\pi_{j}\n\\end{align*}"
     ns0:preamble="/Users/jotterbach/.inkscape/preambel.ini"
     style="font-style:normal;font-variant:normal;font-weight:normal;font-stretch:normal;letter-spacing:normal;word-spacing:normal;text-anchor:start;fill:none;fill-opacity:1;fill-rule:evenodd;stroke:#000000;stroke-linecap:butt;stroke-linejoin:miter;stroke-miterlimit:10.43299961;stroke-dasharray:none;stroke-dashoffset:0;stroke-opacity:1"><path
       style="fill:#000000;stroke-width:0"
       inkscape:connector-curvature="0"
       d="m 393.66,660.99 -0.02,0.03 -0.01,0.04 -0.02,0.03 -0.02,0.03 -0.02,0.03 -0.02,0.04 -0.02,0.03 -0.02,0.02 -0.03,0.03 -0.02,0.03 -0.02,0.03 -0.03,0.02 -0.02,0.03 -0.03,0.02 -0.03,0.02 -0.02,0.03 -0.03,0.02 -0.03,0.02 -0.03,0.01 -0.03,0.02 -0.04,0.02 -0.03,0.01 -0.03,0.02 -0.04,0.01 -0.03,0.01 -0.04,0.01 -0.03,0.01 -0.04,0 -0.04,0.01 -0.04,0 -0.04,0.01 -0.04,0 c -1.17,0 -2.4,-1.47 -2.4,-2.91 0,-0.94 0.55,-1.59 1.32,-1.59 l 0.02,0.21 c -0.49,0 -0.64,0.55 -0.64,0.94 0,0.5 0.32,1.72 0.55,2.17 0.31,0.59 0.76,0.96 1.16,0.96 0.64,0 0.78,-0.82 0.78,-0.88 0,-0.06 -0.02,-0.12 -0.03,-0.17 l -0.49,-1.94 c -0.05,-0.18 -0.05,-0.2 -0.2,-0.37 -0.44,-0.55 -0.85,-0.71 -1.13,-0.71 l -0.02,-0.21 c 0.2,0 0.7,0.03 1.3,0.74 0.08,-0.42 0.42,-0.74 0.9,-0.74 0.35,0 0.58,0.22 0.74,0.54 0.17,0.36 0.3,0.97 0.3,0.99 0,0.1 -0.09,0.1 -0.12,0.1 -0.1,0 -0.11,-0.04 -0.14,-0.18 -0.17,-0.65 -0.35,-1.24 -0.76,-1.24 -0.27,0 -0.3,0.26 -0.3,0.46 0,0.22 0.02,0.3 0.13,0.74 0.11,0.41 0.13,0.51 0.22,0.89 l 0.36,1.39 c 0.07,0.28 0.07,0.3 0.07,0.34 0,0.17 -0.12,0.27 -0.29,0.27 -0.24,0 -0.39,-0.22 -0.42,-0.44 z"
       id="path5624" /><path
       style="fill:#000000;stroke-width:0"
       inkscape:connector-curvature="0"
       d="m 397.38,663.87 0.83,0 c -0.1,-0.41 -0.26,-1.05 -0.26,-1.6 0,-0.27 0.04,-0.46 0.08,-0.61 0.11,-0.35 0.2,-0.38 0.31,-0.38 0.16,0 0.33,0.15 0.33,0.31 0,0.06 -0.01,0.09 -0.05,0.15 -0.14,0.26 -0.26,0.66 -0.26,1.23 0,0.13 0,0.41 0.09,0.9 l 0.88,0 c 0.12,0 0.18,0 0.25,0.06 0.1,0.07 0.12,0.18 0.12,0.21 0,0.21 -0.18,0.21 -0.3,0.21 l -2.62,0 c -0.29,0 -0.48,-0.07 -0.8,-0.36 -0.18,-0.16 -0.45,-0.53 -0.45,-0.6 0,-0.08 0.09,-0.08 0.12,-0.08 0.08,0 0.08,0.01 0.12,0.08 0.36,0.48 0.79,0.48 0.94,0.48 l 0.43,0 c -0.22,-0.76 -0.59,-1.58 -0.8,-2 -0.04,-0.09 -0.11,-0.24 -0.13,-0.26 -0.01,-0.03 -0.03,-0.06 -0.03,-0.11 0,-0.11 0.09,-0.22 0.25,-0.22 0.28,0 0.35,0.31 0.52,0.94 z"
       id="path5626" /><path
       style="fill:#000000;stroke-width:0"
       inkscape:connector-curvature="0"
       d="m 398.27,659.12 0,0.01 0,0.01 0,0.01 0,0.01 0,0.01 -0.01,0.02 0,0.01 0,0.01 -0.01,0.01 0,0.01 -0.01,0.01 0,0.01 -0.01,0.01 -0.01,0.01 -0.01,0.01 0,0.01 -0.01,0.01 -0.01,0.01 -0.01,0.01 -0.01,0.01 -0.01,0.01 -0.02,0 -0.01,0.01 -0.01,0.01 -0.01,0 -0.02,0.01 -0.01,0 -0.02,0.01 -0.01,0 -0.02,0 -0.02,0 -0.01,0 c -0.21,0 -0.39,-0.19 -0.39,-0.38 0,-0.11 0.08,-0.26 0.27,-0.26 0.19,0 0.39,0.18 0.39,0.38 z"
       id="path5628" /><path
       style="fill:#000000;stroke-width:0"
       inkscape:connector-curvature="0"
       d="m 396.8,654.43 -0.01,-0.04 -0.02,-0.05 -0.01,-0.04 -0.02,-0.04 -0.02,-0.05 -0.01,-0.04 -0.02,-0.04 -0.02,-0.04 -0.03,-0.04 -0.02,-0.04 -0.02,-0.03 -0.03,-0.04 -0.03,-0.03 -0.02,-0.04 -0.03,-0.03 -0.03,-0.03 -0.03,-0.03 -0.03,-0.03 -0.03,-0.02 -0.04,-0.03 -0.03,-0.02 -0.03,-0.02 -0.04,-0.02 -0.03,-0.02 -0.04,-0.02 -0.04,-0.01 -0.03,-0.01 -0.04,-0.01 -0.04,-0.01 -0.03,-0.01 -0.04,0 -0.04,0 c -0.09,0 -0.17,0.01 -0.25,0.04 0.18,0.08 0.24,0.25 0.24,0.36 0,0.16 -0.14,0.25 -0.28,0.25 -0.21,0 -0.39,-0.19 -0.39,-0.41 0,-0.26 0.27,-0.44 0.69,-0.44 0.41,0 1.23,0.25 1.45,1.1 l 0.62,2.49 c 0.02,0.08 0.04,0.14 0.04,0.24 0,0.39 -0.33,0.66 -0.75,0.66 -0.77,0 -1.22,-0.97 -1.22,-1.06 0,-0.1 0.1,-0.1 0.12,-0.1 0.09,0 0.09,0.03 0.14,0.13 0.17,0.4 0.54,0.83 0.94,0.83 0.17,0 0.24,-0.11 0.24,-0.34 0,-0.07 -0.02,-0.17 -0.02,-0.21 z"
       id="path5630" /></g>  <g
     style="font-style:normal;font-variant:normal;font-weight:normal;font-stretch:normal;letter-spacing:normal;word-spacing:normal;text-anchor:start;fill:none;fill-opacity:1;fill-rule:evenodd;stroke:#000000;stroke-linecap:butt;stroke-linejoin:miter;stroke-miterlimit:10.43299961;stroke-dasharray:none;stroke-dashoffset:0;stroke-opacity:1"
     ns0:preamble="/Users/jotterbach/.inkscape/preambel.ini"
     ns0:text="\\begin{align*}\n\\mu_{j,k}\n\\end{align*}"
     text-anchor="start"
     word-spacing="normal"
     letter-spacing="normal"
     font-size-adjust="none"
     font-stretch="normal"
     font-weight="normal"
     font-variant="normal"
     font-style="normal"
     fill-opacity="1"
     fill-rule="evenodd"
     fill="none"
     stroke-opacity="1"
     stroke-dashoffset="0"
     stroke-dasharray="none"
     stroke-miterlimit="10.433"
     stroke-linejoin="miter"
     stroke-linecap="butt"
     stroke="black"
     xml:space="preserve"
     transform="matrix(2.56,0,0,-2.56,-582.23883,1780.2854)"
     id="g5944"><path
       id="path5946"
       fill="black"
       stroke-width="0"
       d="M389.32,660.72 L389.32,660.74 L389.32,660.76 L389.33,660.78 L389.34,660.81 L389.34,660.83 L389.35,660.85 L389.36,660.9 L389.37,660.95 L389.38,661 L389.4,661.05 L389.41,661.1 L389.41,661.12 L389.42,661.15 L389.42,661.17 L389.43,661.19 L389.43,661.21 L389.44,661.23 L389.44,661.25 L389.45,661.27 L389.45,661.28 L389.45,661.3 L389.46,661.31 L389.46,661.32 L389.46,661.34 L389.46,661.34 L389.46,661.35 L389.46,661.36 L389.46,661.36 C389.46,661.53,389.35,661.63,389.18,661.63 C389.15,661.63,388.87,661.62,388.78,661.27 L387.35,655.52 C387.32,655.4,387.32,655.38,387.32,655.36 C387.32,655.21,387.42,655.09,387.59,655.09 C387.8,655.09,387.92,655.27,387.94,655.3 C387.98,655.39,388.11,655.9,388.49,657.43 C388.81,657.16,389.26,657.13,389.45,657.13 C390.15,657.13,390.54,657.57,390.78,657.85 C390.87,657.4,391.24,657.13,391.67,657.13 C392.02,657.13,392.25,657.35,392.41,657.67 C392.58,658.03,392.71,658.64,392.71,658.66 C392.71,658.76,392.62,658.76,392.59,658.76 C392.49,658.76,392.48,658.72,392.45,658.58 C392.28,657.93,392.1,657.34,391.69,657.34 C391.42,657.34,391.39,657.6,391.39,657.8 C391.39,658.02,391.51,658.49,391.59,658.83 L391.87,659.91 C391.9,660.06,392,660.43,392.04,660.58 C392.09,660.81,392.19,661.19,392.19,661.25 C392.19,661.43,392.05,661.52,391.9,661.52 C391.85,661.52,391.59,661.51,391.51,661.17 L391.05,659.31 C390.93,658.81,390.82,658.4,390.79,658.3 C390.78,658.25,390.3,657.34,389.49,657.34 C389,657.34,388.76,657.67,388.76,658.21 C388.76,658.5,388.83,658.78,388.9,659.05 Z " /><path
       id="path5948"
       fill="black"
       stroke-width="0"
       d="M396.08,660.09 L396.08,660.1 L396.08,660.11 L396.07,660.12 L396.07,660.13 L396.07,660.14 L396.07,660.16 L396.06,660.17 L396.06,660.18 L396.06,660.19 L396.05,660.2 L396.04,660.21 L396.04,660.22 L396.03,660.23 L396.02,660.24 L396.02,660.25 L396.01,660.26 L396,660.27 L395.99,660.28 L395.98,660.29 L395.97,660.3 L395.96,660.31 L395.95,660.31 L395.93,660.32 L395.92,660.33 L395.91,660.33 L395.89,660.34 L395.88,660.34 L395.86,660.34 L395.85,660.35 L395.83,660.35 L395.82,660.35 L395.8,660.35 C395.6,660.35,395.41,660.16,395.41,659.97 C395.41,659.86,395.49,659.71,395.69,659.71 C395.88,659.71,396.08,659.89,396.08,660.09 Z " /><path
       id="path5950"
       fill="black"
       stroke-width="0"
       d="M394.6,655.4 L394.59,655.36 L394.58,655.31 L394.56,655.27 L394.55,655.22 L394.53,655.18 L394.51,655.14 L394.49,655.1 L394.47,655.06 L394.45,655.02 L394.42,654.98 L394.4,654.95 L394.37,654.91 L394.35,654.87 L394.32,654.84 L394.29,654.81 L394.26,654.78 L394.23,654.75 L394.2,654.72 L394.17,654.69 L394.14,654.67 L394.1,654.65 L394.07,654.63 L394.03,654.61 L394,654.59 L393.96,654.57 L393.93,654.56 L393.89,654.55 L393.85,654.54 L393.82,654.53 L393.78,654.52 L393.74,654.52 L393.7,654.52 C393.61,654.52,393.53,654.53,393.45,654.56 C393.63,654.64,393.69,654.81,393.69,654.91 C393.69,655.08,393.56,655.17,393.42,655.17 C393.2,655.17,393.02,654.98,393.02,654.76 C393.02,654.5,393.29,654.32,393.71,654.32 C394.13,654.32,394.94,654.57,395.16,655.42 L395.79,657.91 C395.81,657.99,395.82,658.05,395.82,658.15 C395.82,658.54,395.49,658.81,395.08,658.81 C394.3,658.81,393.86,657.84,393.86,657.74 C393.86,657.65,393.95,657.65,393.97,657.65 C394.06,657.65,394.07,657.67,394.11,657.78 C394.29,658.18,394.65,658.61,395.05,658.61 C395.23,658.61,395.29,658.49,395.29,658.27 C395.29,658.2,395.28,658.1,395.27,658.06 Z " /><path
       id="path5952"
       fill="black"
       stroke-width="0"
       d="M397.76,655.85 L397.76,655.78 L397.75,655.71 L397.75,655.63 L397.74,655.55 L397.73,655.52 L397.73,655.48 L397.72,655.44 L397.71,655.4 L397.7,655.36 L397.69,655.32 L397.68,655.28 L397.66,655.24 L397.65,655.2 L397.63,655.16 L397.61,655.12 L397.59,655.08 L397.57,655.04 L397.55,655 L397.53,654.95 L397.5,654.91 L397.47,654.87 L397.44,654.83 L397.41,654.79 L397.37,654.75 L397.34,654.71 L397.3,654.66 L397.26,654.62 L397.21,654.58 C397.19,654.55,397.17,654.53,397.17,654.5 C397.17,654.45,397.22,654.4,397.26,654.4 C397.36,654.4,397.95,654.96,397.95,655.78 C397.95,656.21,397.79,656.54,397.47,656.54 C397.24,656.54,397.07,656.36,397.07,656.14 C397.07,655.92,397.23,655.74,397.47,655.74 C397.64,655.74,397.75,655.85,397.76,655.85 Z " /><path
       id="path5954"
       fill="black"
       stroke-width="0"
       d="M400.83,660.36 L400.84,660.36 L400.84,660.36 L400.84,660.36 L400.84,660.36 L400.84,660.36 L400.84,660.36 L400.84,660.37 L400.84,660.37 L400.84,660.37 L400.84,660.37 L400.84,660.38 L400.84,660.38 L400.84,660.38 L400.84,660.39 L400.85,660.39 L400.85,660.4 L400.85,660.4 L400.85,660.41 L400.85,660.42 L400.85,660.42 L400.85,660.43 L400.85,660.43 L400.86,660.43 L400.86,660.44 L400.86,660.44 L400.86,660.45 L400.86,660.45 L400.86,660.45 L400.86,660.46 L400.86,660.46 L400.86,660.46 L400.86,660.46 L400.86,660.46 L400.86,660.46 L400.86,660.47 L400.86,660.47 L400.86,660.47 L400.86,660.47 L400.86,660.47 L400.86,660.47 L400.86,660.47 C400.86,660.5,400.83,660.57,400.75,660.57 C400.61,660.57,400.03,660.51,399.86,660.5 C399.8,660.49,399.71,660.48,399.71,660.34 C399.71,660.24,399.8,660.24,399.89,660.24 C400.22,660.24,400.22,660.19,400.22,660.14 C400.22,660.09,400.21,660.04,400.19,659.98 L399.21,656.05 C399.18,655.92,399.18,655.91,399.18,655.89 C399.18,655.79,399.26,655.67,399.41,655.67 C399.6,655.67,399.69,655.81,399.73,655.96 C399.75,655.99,400.05,657.22,400.08,657.31 C400.57,657.26,400.97,657.1,400.97,656.74 C400.97,656.71,400.97,656.67,400.95,656.6 C400.92,656.5,400.92,656.46,400.92,656.39 C400.92,655.89,401.33,655.67,401.66,655.67 C402.34,655.67,402.55,656.73,402.55,656.73 C402.55,656.83,402.46,656.83,402.44,656.83 C402.34,656.83,402.33,656.79,402.3,656.66 C402.21,656.36,402.03,655.87,401.68,655.87 C401.5,655.87,401.44,656.04,401.44,656.23 C401.44,656.35,401.44,656.36,401.48,656.54 C401.49,656.56,401.52,656.68,401.52,656.76 C401.52,657.38,400.68,657.47,400.39,657.49 C400.59,657.62,400.85,657.85,400.97,657.95 C401.32,658.29,401.67,658.61,402.06,658.61 C402.14,658.61,402.23,658.59,402.29,658.52 C401.99,658.47,401.93,658.24,401.93,658.13 C401.93,657.98,402.05,657.88,402.21,657.88 C402.39,657.88,402.6,658.03,402.6,658.32 C402.6,658.55,402.44,658.81,402.07,658.81 C401.67,658.81,401.31,658.52,400.95,658.2 C400.66,657.92,400.43,657.7,400.14,657.58 Z " /></g>  <g
     id="g6276"
     transform="matrix(2.56,0,0,-2.56,-583.24985,1880.7762)"
     xml:space="preserve"
     stroke="black"
     stroke-linecap="butt"
     stroke-linejoin="miter"
     stroke-miterlimit="10.433"
     stroke-dasharray="none"
     stroke-dashoffset="0"
     stroke-opacity="1"
     fill="none"
     fill-rule="evenodd"
     fill-opacity="1"
     font-style="normal"
     font-variant="normal"
     font-weight="normal"
     font-stretch="normal"
     font-size-adjust="none"
     letter-spacing="normal"
     word-spacing="normal"
     text-anchor="start"
     ns0:text="\\begin{align*}\n\\sigma_{j}\n\\end{align*}"
     ns0:preamble="/Users/jotterbach/.inkscape/preambel.ini"
     style="font-style:normal;font-variant:normal;font-weight:normal;font-stretch:normal;letter-spacing:normal;word-spacing:normal;text-anchor:start;fill:none;fill-opacity:1;fill-rule:evenodd;stroke:#000000;stroke-linecap:butt;stroke-linejoin:miter;stroke-miterlimit:10.43299961;stroke-dasharray:none;stroke-dashoffset:0;stroke-opacity:1"><path
       d="M395.5,660.94 L395.51,660.94 L395.52,660.94 L395.54,660.94 L395.55,660.94 L395.57,660.94 L395.59,660.94 L395.61,660.94 L395.63,660.95 L395.65,660.95 L395.67,660.95 L395.69,660.95 L395.71,660.96 L395.73,660.96 L395.75,660.97 L395.77,660.97 L395.79,660.98 L395.81,660.99 L395.83,661 L395.85,661.01 L395.86,661.02 L395.88,661.04 L395.9,661.05 L395.9,661.06 L395.91,661.07 L395.92,661.07 L395.93,661.08 L395.93,661.09 L395.94,661.1 L395.94,661.11 L395.95,661.12 L395.95,661.13 L395.96,661.14 L395.96,661.15 L395.97,661.17 L395.97,661.18 L395.97,661.19 L395.98,661.2 L395.98,661.22 L395.98,661.23 L395.98,661.25 L395.98,661.26 L395.98,661.28 C395.98,661.52,395.77,661.52,395.6,661.52 H393.33 C391.82,661.52,390.72,659.88,390.72,658.7 C390.72,657.82,391.31,657.13,392.21,657.13 L392.22,657.34 C391.73,657.34,391.34,657.7,391.34,658.42 C391.34,658.72,391.46,659.53,391.8,660.12 C392.22,660.8,392.82,660.94,393.16,660.94 C393.99,660.94,394.07,660.28,394.07,659.98 C394.07,659.51,393.87,658.7,393.54,658.19 C393.15,657.6,392.61,657.34,392.22,657.34 H392.22 L392.21,657.13 C393.39,657.13,394.71,658.33,394.71,659.86 C394.71,660.03,394.71,660.5,394.4,660.94 Z "
       stroke-width="0"
       fill="black"
       id="path6278" /><path
       d="M399.09,660.09 L399.09,660.1 L399.09,660.11 L399.09,660.12 L399.09,660.13 L399.09,660.14 L399.08,660.16 L399.08,660.17 L399.08,660.18 L399.07,660.19 L399.07,660.2 L399.06,660.21 L399.05,660.22 L399.05,660.23 L399.04,660.24 L399.03,660.25 L399.02,660.26 L399.01,660.27 L399.01,660.28 L399,660.29 L398.98,660.3 L398.97,660.31 L398.96,660.31 L398.95,660.32 L398.94,660.33 L398.92,660.33 L398.91,660.34 L398.89,660.34 L398.88,660.34 L398.86,660.35 L398.85,660.35 L398.83,660.35 L398.81,660.35 C398.61,660.35,398.42,660.16,398.42,659.97 C398.42,659.86,398.51,659.71,398.7,659.71 C398.89,659.71,399.09,659.89,399.09,660.09 Z "
       stroke-width="0"
       fill="black"
       id="path6280" /><path
       d="M397.62,655.4 L397.6,655.36 L397.59,655.31 L397.58,655.27 L397.56,655.22 L397.54,655.18 L397.52,655.14 L397.5,655.1 L397.48,655.06 L397.46,655.02 L397.44,654.98 L397.41,654.95 L397.39,654.91 L397.36,654.87 L397.33,654.84 L397.31,654.81 L397.28,654.78 L397.25,654.75 L397.21,654.72 L397.18,654.69 L397.15,654.67 L397.12,654.65 L397.08,654.63 L397.05,654.61 L397.01,654.59 L396.98,654.57 L396.94,654.56 L396.91,654.55 L396.87,654.54 L396.83,654.53 L396.79,654.52 L396.76,654.52 L396.72,654.52 C396.63,654.52,396.54,654.53,396.47,654.56 C396.65,654.64,396.7,654.81,396.7,654.91 C396.7,655.08,396.57,655.17,396.43,655.17 C396.22,655.17,396.04,654.98,396.04,654.76 C396.04,654.5,396.31,654.32,396.73,654.32 C397.14,654.32,397.96,654.57,398.17,655.42 L398.8,657.91 C398.82,657.99,398.83,658.05,398.83,658.15 C398.83,658.54,398.51,658.81,398.09,658.81 C397.32,658.81,396.87,657.84,396.87,657.74 C396.87,657.65,396.97,657.65,396.99,657.65 C397.07,657.65,397.08,657.67,397.13,657.78 C397.3,658.18,397.67,658.61,398.07,658.61 C398.24,658.61,398.3,658.49,398.3,658.27 C398.3,658.2,398.29,658.1,398.29,658.06 Z "
       stroke-width="0"
       fill="black"
       id="path6282" /></g>  <g
     style="font-style:normal;font-variant:normal;font-weight:normal;font-stretch:normal;letter-spacing:normal;word-spacing:normal;text-anchor:start;fill:none;fill-opacity:1;fill-rule:evenodd;stroke:#000000;stroke-linecap:butt;stroke-linejoin:miter;stroke-miterlimit:10.43299961;stroke-dasharray:none;stroke-dashoffset:0;stroke-opacity:1"
     ns0:preamble="/Users/jotterbach/.inkscape/preambel.ini"
     ns0:text="\\begin{align*}\n\\pi_{j}\n\\end{align*}"
     word-spacing="normal"
     letter-spacing="normal"
     font-size-adjust="none"
     font-stretch="normal"
     font-weight="normal"
     font-variant="normal"
     font-style="normal"
     stroke-miterlimit="10.433"
     xml:space="preserve"
     transform="matrix(2.56,0,0,-2.56,-582.21002,1980.083)"
     id="g6612"><path
       id="path6614"
       d="m 392.98,660.94 1.13,0 c -0.33,-1.47 -0.42,-1.9 -0.42,-2.56 0,-0.15 0,-0.42 0.08,-0.76 0.1,-0.44 0.21,-0.49 0.36,-0.49 0.2,0 0.41,0.17 0.41,0.37 0,0.06 0,0.08 -0.06,0.22 -0.29,0.72 -0.29,1.36 -0.29,1.64 0,0.53 0.07,1.06 0.18,1.58 l 1.13,0 c 0.13,0 0.49,0 0.49,0.34 0,0.24 -0.21,0.24 -0.4,0.24 l -3.33,0 c -0.22,0 -0.6,0 -1.03,-0.47 -0.35,-0.39 -0.61,-0.84 -0.61,-0.89 0,-0.01 0,-0.1 0.12,-0.1 0.08,0 0.1,0.04 0.16,0.11 0.48,0.77 1.06,0.77 1.26,0.77 l 0.57,0 c -0.32,-1.2 -0.86,-2.4 -1.28,-3.31 -0.08,-0.15 -0.08,-0.17 -0.08,-0.24 0,-0.18 0.16,-0.26 0.29,-0.26 0.3,0 0.38,0.27 0.5,0.64 0.14,0.46 0.14,0.48 0.27,0.97 z"
       inkscape:connector-curvature="0"
       style="fill:#000000;stroke-width:0" /><path
       id="path6616"
       d="m 399.08,660.09 0,0.01 0,0.01 0,0.01 0,0.01 0,0.01 0,0.02 -0.01,0.01 0,0.01 -0.01,0.01 0,0.01 -0.01,0.01 0,0.01 -0.01,0.01 -0.01,0.01 -0.01,0.01 0,0.01 -0.01,0.01 -0.01,0.01 -0.01,0.01 -0.01,0.01 -0.01,0.01 -0.02,0 -0.01,0.01 -0.01,0.01 -0.01,0 -0.02,0.01 -0.01,0 -0.02,0 -0.01,0.01 -0.02,0 -0.02,0 -0.01,0 c -0.2,0 -0.39,-0.19 -0.39,-0.38 0,-0.11 0.08,-0.26 0.28,-0.26 0.18,0 0.38,0.18 0.38,0.38 z"
       inkscape:connector-curvature="0"
       style="fill:#000000;stroke-width:0" /><path
       id="path6618"
       d="m 397.61,655.4 -0.01,-0.04 -0.02,-0.05 -0.01,-0.04 -0.02,-0.05 -0.01,-0.04 -0.02,-0.04 -0.02,-0.04 -0.02,-0.04 -0.03,-0.04 -0.02,-0.04 -0.02,-0.03 -0.03,-0.04 -0.03,-0.04 -0.02,-0.03 -0.03,-0.03 -0.03,-0.03 -0.03,-0.03 -0.03,-0.03 -0.03,-0.03 -0.04,-0.02 -0.03,-0.02 -0.03,-0.02 -0.04,-0.02 -0.03,-0.02 -0.04,-0.02 -0.03,-0.01 -0.04,-0.01 -0.04,-0.01 -0.04,-0.01 -0.03,-0.01 -0.04,0 -0.04,0 c -0.09,0 -0.17,0.01 -0.25,0.04 0.18,0.08 0.24,0.25 0.24,0.35 0,0.17 -0.14,0.26 -0.28,0.26 -0.21,0 -0.39,-0.19 -0.39,-0.41 0,-0.26 0.27,-0.44 0.69,-0.44 0.42,0 1.23,0.25 1.45,1.1 l 0.62,2.49 c 0.02,0.08 0.04,0.14 0.04,0.24 0,0.39 -0.33,0.66 -0.75,0.66 -0.77,0 -1.22,-0.97 -1.22,-1.07 0,-0.09 0.1,-0.09 0.12,-0.09 0.09,0 0.09,0.02 0.14,0.13 0.18,0.4 0.54,0.83 0.94,0.83 0.18,0 0.24,-0.12 0.24,-0.34 0,-0.07 -0.02,-0.17 -0.02,-0.21 z"
       inkscape:connector-curvature="0"
       style="fill:#000000;stroke-width:0" /></g>  <rect
     transform="scale(1,-1)"
     rx="4.9999924"
     ry="5.0000005"
     y="-364.81332"
     x="186.02956"
     height="350.00003"
     width="25"
     id="rect6782"
     style="fill:none;fill-opacity:1;fill-rule:nonzero;stroke:#323232;stroke-width:1.5;stroke-linecap:round;stroke-linejoin:round;stroke-miterlimit:4;stroke-dasharray:none;stroke-dashoffset:0;stroke-opacity:1" />
  <text
     id="text6786"
     y="190.21761"
     x="147.37025"
     style="font-style:normal;font-weight:normal;font-size:40px;line-height:125%;font-family:sans-serif;letter-spacing:0px;word-spacing:0px;fill:#000000;fill-opacity:1;stroke:none;stroke-width:1px;stroke-linecap:butt;stroke-linejoin:miter;stroke-opacity:1"
     xml:space="preserve"
     sodipodi:linespacing="125%"><tspan
       style="font-style:normal;font-variant:normal;font-weight:normal;font-stretch:normal;font-size:20px;font-family:Verdana;-inkscape-font-specification:Verdana;fill:#323232;fill-opacity:1"
       y="190.21761"
       x="147.37025"
       id="tspan6788">...</tspan></text>
</svg>
