<?xml version="1.0" encoding="UTF-8" standalone="no"?>
<!-- Created with Inkscape (http://www.inkscape.org/) -->

<svg
   xmlns:dc="http://purl.org/dc/elements/1.1/"
   xmlns:cc="http://creativecommons.org/ns#"
   xmlns:rdf="http://www.w3.org/1999/02/22-rdf-syntax-ns#"
   xmlns:svg="http://www.w3.org/2000/svg"
   xmlns="http://www.w3.org/2000/svg"
   xmlns:sodipodi="http://sodipodi.sourceforge.net/DTD/sodipodi-0.dtd"
   xmlns:inkscape="http://www.inkscape.org/namespaces/inkscape"
   width="211.01056mm"
   height="84.198692mm"
   viewBox="0 0 747.67521 298.34182"
   id="svg14741"
   version="1.1"
   inkscape:version="0.91 r13725"
   sodipodi:docname="activations.svg">
  <sodipodi:namedview
     id="base"
     pagecolor="#ffffff"
     bordercolor="#666666"
     borderopacity="1.0"
     inkscape:pageopacity="0.0"
     inkscape:pageshadow="2"
     inkscape:zoom="1"
     inkscape:cx="362.84938"
     inkscape:cy="29.019248"
     inkscape:document-units="px"
     inkscape:current-layer="layer1"
     showgrid="true"
     inkscape:window-width="1920"
     inkscape:window-height="1112"
     inkscape:window-x="0"
     inkscape:window-y="1"
     inkscape:window-maximized="1"
     fit-margin-top="5"
     fit-margin-left="5"
     fit-margin-right="5"
     fit-margin-bottom="5">
    <inkscape:grid
       type="xygrid"
       id="grid14749"
       originx="451.41094"
       originy="-490.98074" />
  </sodipodi:namedview>
  <defs
     id="defs14743" />
  <metadata
     id="metadata14746">
    <rdf:RDF>
      <cc:Work
         rdf:about="">
        <dc:format>image/svg+xml</dc:format>
        <dc:type
           rdf:resource="http://purl.org/dc/dcmitype/StillImage" />
        <dc:title></dc:title>
      </cc:Work>
    </rdf:RDF>
  </metadata>
  <g
     inkscape:label="Layer 1"
     inkscape:groupmode="layer"
     id="layer1"
     transform="translate(451.41096,-263.03962)">
    <path
       style="fill:#323232;fill-opacity:1;fill-rule:nonzero;stroke:#323232;stroke-width:1.5;stroke-linecap:round;stroke-linejoin:round;stroke-miterlimit:4;stroke-dasharray:none;stroke-dashoffset:0;stroke-opacity:1"
       d="m -432.93374,411.17403 262.81359,0 m -131.4068,88.89166 0,-213.33999 m -131.40679,195.56165 c 12.51489,-8.46587 25.02989,-16.93173 37.5448,-25.39761 12.51493,-8.46587 25.02985,-16.93175 37.5448,-25.39762 12.51493,-8.46587 25.02986,-16.93174 37.5448,-25.39761 12.51493,-8.46587 25.02985,-16.93175 37.54479,-25.39763 12.51493,-8.46587 25.02987,-16.93174 37.5448,-25.39761 12.51493,-8.46588 25.02986,-16.93175 37.5448,-25.39762 12.51493,-8.46587 25.02986,-16.93175 37.5448,-25.39762"
       title="0.5*x+.1"
       id="path14943"
       inkscape:connector-curvature="0" />
    <path
       inkscape:connector-curvature="0"
       style="fill:none;fill-opacity:1;fill-rule:nonzero;stroke:#323232;stroke-width:1.5;stroke-linecap:round;stroke-linejoin:round;stroke-miterlimit:4;stroke-dasharray:none;stroke-dashoffset:0;stroke-opacity:1"
       d="m 124.97158,499.22151 152.81545,0 m -61.12617,0.84418 0,-211.88962 m -91.68928,209.0831 c 7.27692,-0.57755 14.55386,-1.38789 21.83078,-2.7519 7.27693,-1.36402 14.55385,-3.27669 21.83078,-6.36589 7.27692,-3.0892 14.55385,-7.37713 21.83078,-13.78504 7.27693,-6.40791 14.55385,-15.00696 21.83077,-26.44775 7.27693,-11.4408 14.55387,-25.759 21.83078,-42.62375 7.27694,-16.86477 14.55386,-36.2315 21.83078,-57.15897 7.27693,-20.92747 14.55387,-43.39175 21.83078,-66.60952"
       title="log(1+exp(0.5*x))"
       id="path15511" />
    <path
       id="path15722"
       title="tanh(0.5*x)"
       d="m -133.1555,409.53003 236.00921,0 m -118.004607,90.53566 0,-181.07133 M -133.1555,498.85382 c 11.23853,-0.57364 22.47706,-1.44791 33.7156,-3.73984 11.23853,-2.29193 22.477065,-5.96247 33.715602,-14.06088 11.238529,-8.09841 22.477064,-21.47705 33.7156,-40.49696 11.238534,-19.01991 22.4770683,-43.023 33.7156031,-62.05223 11.2385349,-19.02922 22.4770699,-32.3894 33.7155989,-40.49695 11.238539,-8.10756 22.477068,-11.76586 33.715605,-14.06088 11.238532,-2.29504 22.477069,-3.16621 33.715601,-3.73984"
       style="fill:none;fill-opacity:1;fill-rule:nonzero;stroke:#323232;stroke-width:1.5;stroke-linecap:round;stroke-linejoin:round;stroke-miterlimit:4;stroke-dasharray:none;stroke-dashoffset:0;stroke-opacity:1"
       inkscape:connector-curvature="0" />
    <text
       xml:space="preserve"
       style="font-style:normal;font-variant:normal;font-weight:normal;font-stretch:normal;font-size:40px;line-height:125%;font-family:Verdana;-inkscape-font-specification:Verdana;letter-spacing:0px;word-spacing:0px;fill:#000000;fill-opacity:1;stroke:none;stroke-width:1px;stroke-linecap:butt;stroke-linejoin:miter;stroke-opacity:1"
       x="-402.53281"
       y="543.36218"
       id="text16271"
       sodipodi:linespacing="125%"><tspan
         sodipodi:role="line"
         id="tspan16273"
         x="-402.53281"
         y="543.36218"
         style="font-size:20px">linear: no activation</tspan></text>
    <text
       sodipodi:linespacing="125%"
       id="text16275"
       y="543.36218"
       x="-89.628433"
       style="font-style:normal;font-weight:normal;font-size:40px;line-height:125%;font-family:sans-serif;letter-spacing:0px;word-spacing:0px;fill:#000000;fill-opacity:1;stroke:none;stroke-width:1px;stroke-linecap:butt;stroke-linejoin:miter;stroke-opacity:1"
       xml:space="preserve"><tspan
         y="543.36218"
         x="-89.628433"
         id="tspan16277"
         sodipodi:role="line"
         style="font-style:normal;font-variant:normal;font-weight:normal;font-stretch:normal;font-size:20px;font-family:Verdana;-inkscape-font-specification:Verdana">tanh activation</tspan></text>
    <text
       xml:space="preserve"
       style="font-style:normal;font-variant:normal;font-weight:normal;font-stretch:normal;font-size:20px;line-height:125%;font-family:Verdana;-inkscape-font-specification:Verdana;letter-spacing:0px;word-spacing:0px;fill:#000000;fill-opacity:1;stroke:none;stroke-width:1px;stroke-linecap:butt;stroke-linejoin:miter;stroke-opacity:1"
       x="123.02481"
       y="543.08386"
       id="text16279"
       sodipodi:linespacing="125%"><tspan
         sodipodi:role="line"
         id="tspan16281"
         x="123.02481"
         y="543.08386">ReLU activation</tspan></text>
  </g>
</svg>
