<?xml version="1.0" encoding="utf-8"?>
<!-- Generator: Adobe Illustrator 19.0.1, SVG Export Plug-In . SVG Version: 6.00 Build 0)  -->
<!DOCTYPE svg PUBLIC "-//W3C//DTD SVG 1.1//EN" "http://www.w3.org/Graphics/SVG/1.1/DTD/svg11.dtd">
<svg version="1.1" id="Layer_1" xmlns="http://www.w3.org/2000/svg" xmlns:xlink="http://www.w3.org/1999/xlink" x="0px" y="0px"
	 viewBox="0 0 540 310" enable-background="new 0 0 540 310" xml:space="preserve">
<g opacity="0.75">
	<g>
		<path fill="#5D6B7E" d="M19,195.1h2.2v-6.4c0-0.3,0-0.6,0-0.6h0c0,0-0.1,0.2-0.5,0.6l-0.9,0.9l-0.8-0.9l2.4-2.3h1.2v8.7h2.2v1.2
			H19V195.1z"/>
		<path fill="#5D6B7E" d="M25.9,191.4c0-2.8,0.9-5.1,3.5-5.1c2.6,0,3.5,2.3,3.5,5.1c0,2.9-0.9,5.1-3.5,5.1
			C26.8,196.5,25.9,194.2,25.9,191.4z M31.5,191.4c0-2.1-0.5-3.8-2.1-3.8c-1.6,0-2.1,1.7-2.1,3.8c0,2.2,0.5,3.9,2.1,3.9
			C31,195.2,31.5,193.5,31.5,191.4z"/>
		<path fill="#5D6B7E" d="M34.7,191.4c0-2.8,0.9-5.1,3.5-5.1c2.6,0,3.5,2.3,3.5,5.1c0,2.9-0.9,5.1-3.5,5.1
			C35.5,196.5,34.7,194.2,34.7,191.4z M40.2,191.4c0-2.1-0.5-3.8-2.1-3.8c-1.6,0-2.1,1.7-2.1,3.8c0,2.2,0.5,3.9,2.1,3.9
			C39.8,195.2,40.2,193.5,40.2,191.4z"/>
	</g>
	<g>
		<path fill="#5D6B7E" d="M17.8,153.2c0-3.5,4.8-4,4.8-6.4c0-1-0.7-1.6-1.8-1.6c-1.3,0-2,1.3-2,1.3l-1-0.7c0,0,0.9-1.9,3.1-1.9
			c1.8,0,3.1,1.1,3.1,2.8c0,3.2-4.7,3.8-4.7,6h4.9v1.2h-6.4C17.8,153.7,17.8,153.4,17.8,153.2z"/>
		<path fill="#5D6B7E" d="M25.9,149c0-2.8,0.9-5.1,3.5-5.1c2.6,0,3.5,2.3,3.5,5.1c0,2.9-0.9,5.1-3.5,5.1
			C26.8,154.1,25.9,151.8,25.9,149z M31.5,149c0-2.1-0.5-3.8-2.1-3.8c-1.6,0-2.1,1.7-2.1,3.8c0,2.2,0.5,3.9,2.1,3.9
			C31,152.8,31.5,151.1,31.5,149z"/>
		<path fill="#5D6B7E" d="M34.7,149c0-2.8,0.9-5.1,3.5-5.1c2.6,0,3.5,2.3,3.5,5.1c0,2.9-0.9,5.1-3.5,5.1
			C35.5,154.1,34.7,151.8,34.7,149z M40.2,149c0-2.1-0.5-3.8-2.1-3.8c-1.6,0-2.1,1.7-2.1,3.8c0,2.2,0.5,3.9,2.1,3.9
			C39.8,152.8,40.2,151.1,40.2,149z"/>
	</g>
	<g>
		<path fill="#5D6B7E" d="M18.4,107.3c0,0,1,1.1,2.4,1.1c1.1,0,2-0.7,2-1.8c0-1.2-1.1-1.8-2.3-1.8h-0.7l-0.3-0.7l2.2-2.5
			c0.3-0.4,0.6-0.6,0.6-0.6v0c0,0-0.3,0-0.8,0h-3.3v-1.2H24v0.9l-2.7,3.1c1.3,0.1,2.9,1,2.9,2.9c0,1.7-1.3,3.2-3.4,3.2
			c-2,0-3.2-1.3-3.2-1.3L18.4,107.3z"/>
		<path fill="#5D6B7E" d="M25.9,104.5c0-2.8,0.9-5.1,3.5-5.1c2.6,0,3.5,2.3,3.5,5.1c0,2.9-0.9,5.1-3.5,5.1
			C26.8,109.7,25.9,107.4,25.9,104.5z M31.5,104.5c0-2.1-0.5-3.8-2.1-3.8c-1.6,0-2.1,1.7-2.1,3.8c0,2.2,0.5,3.9,2.1,3.9
			C31,108.4,31.5,106.7,31.5,104.5z"/>
		<path fill="#5D6B7E" d="M34.7,104.5c0-2.8,0.9-5.1,3.5-5.1c2.6,0,3.5,2.3,3.5,5.1c0,2.9-0.9,5.1-3.5,5.1
			C35.5,109.7,34.7,107.4,34.7,104.5z M40.2,104.5c0-2.1-0.5-3.8-2.1-3.8c-1.6,0-2.1,1.7-2.1,3.8c0,2.2,0.5,3.9,2.1,3.9
			C39.8,108.4,40.2,106.7,40.2,104.5z"/>
	</g>
	<g>
		<path fill="#5D6B7E" d="M17,63l4.6-6.4h1.6v6.1h1.3v1.2h-1.3v2.6h-1.4v-2.6H17V63z M21.8,62.7v-3.6c0-0.5,0.1-1,0.1-1h0
			c0,0-0.2,0.5-0.5,0.8l-2.8,3.7v0H21.8z"/>
		<path fill="#5D6B7E" d="M25.9,61.5c0-2.8,0.9-5.1,3.5-5.1c2.6,0,3.5,2.3,3.5,5.1c0,2.9-0.9,5.1-3.5,5.1
			C26.8,66.7,25.9,64.4,25.9,61.5z M31.5,61.5c0-2.1-0.5-3.8-2.1-3.8c-1.6,0-2.1,1.7-2.1,3.8c0,2.2,0.5,3.9,2.1,3.9
			C31,65.4,31.5,63.7,31.5,61.5z"/>
		<path fill="#5D6B7E" d="M34.7,61.5c0-2.8,0.9-5.1,3.5-5.1c2.6,0,3.5,2.3,3.5,5.1c0,2.9-0.9,5.1-3.5,5.1
			C35.5,66.7,34.7,64.4,34.7,61.5z M40.2,61.5c0-2.1-0.5-3.8-2.1-3.8c-1.6,0-2.1,1.7-2.1,3.8c0,2.2,0.5,3.9,2.1,3.9
			C39.8,65.4,40.2,63.7,40.2,61.5z"/>
	</g>
	<g>
		<path fill="#5D6B7E" d="M34.7,234.8c0-2.8,0.9-5.1,3.5-5.1c2.6,0,3.5,2.3,3.5,5.1c0,2.9-0.9,5.1-3.5,5.1
			C35.5,239.9,34.7,237.6,34.7,234.8z M40.2,234.8c0-2.1-0.5-3.8-2.1-3.8c-1.6,0-2.1,1.7-2.1,3.8c0,2.2,0.5,3.9,2.1,3.9
			C39.8,238.6,40.2,236.9,40.2,234.8z"/>
	</g>
</g>
<g>
	<g>
		<g>
			<rect x="49" y="236" fill="#5D6B7E" width="380" height="1"/>
		</g>
	</g>
	<g>
		<rect x="49" y="40" fill="#CCCCCC" width="1" height="196"/>
	</g>
</g>
<g>
	<g>
		<g>
			<path fill="#5D6B7E" d="M75.1,258.4c0,0,1.4,1.4,3.2,1.4c1.2,0,2.2-0.7,2.2-1.9c0-2.8-6.2-2.2-6.2-6.1c0-2,1.7-3.5,4.1-3.5
				c2.4,0,3.6,1.3,3.6,1.3l-0.8,1.5c0,0-1.2-1.1-2.8-1.1c-1.4,0-2.3,0.8-2.3,1.9c0,2.6,6.2,1.9,6.2,6c0,2-1.5,3.6-4,3.6
				c-2.7,0-4.2-1.7-4.2-1.7L75.1,258.4z"/>
			<path fill="#5D6B7E" d="M84.5,248.5h1.8v1.8h-1.8V248.5z M84.5,252.1h1.7v9.1h-1.7V252.1z"/>
			<path fill="#5D6B7E" d="M88.9,248.5h1.7v9.9c0,1.1,0.4,1.3,1,1.3c0.2,0,0.3,0,0.3,0v1.5c0,0-0.3,0-0.6,0c-1,0-2.4-0.3-2.4-2.6
				V248.5z"/>
			<path fill="#5D6B7E" d="M92.5,252.1h1.9l2.2,6.2c0.2,0.5,0.3,1.2,0.3,1.2h0c0,0,0.1-0.7,0.3-1.2l2.2-6.2h1.8l-3.4,9.1h-2
				L92.5,252.1z"/>
			<path fill="#5D6B7E" d="M106.7,251.9c2.6,0,3.9,1.9,3.9,4.3c0,0.2-0.1,0.8-0.1,0.8h-6.6c0.1,2,1.5,3,3.1,3c1.6,0,2.7-1.1,2.7-1.1
				l0.7,1.3c0,0-1.4,1.3-3.5,1.3c-2.9,0-4.8-2.1-4.8-4.8C102.1,253.8,104.1,251.9,106.7,251.9z M108.9,255.6c-0.1-1.6-1-2.3-2.2-2.3
				c-1.3,0-2.4,0.8-2.7,2.3H108.9z"/>
			<path fill="#5D6B7E" d="M112.8,252.1h1.7v1.6c0,0.4,0,0.7,0,0.7h0c0.4-1.3,1.5-2.4,2.9-2.4c0.2,0,0.5,0,0.5,0v1.7
				c0,0-0.2-0.1-0.5-0.1c-1.1,0-2.1,0.8-2.6,2.1c-0.2,0.5-0.2,1.1-0.2,1.6v3.7h-1.7V252.1z"/>
		</g>
	</g>
	<g>
		<g>
			<path fill="#5D6B7E" d="M177.6,248.3c3,0,4.6,1.5,4.6,1.5l-0.9,1.3c0,0-1.4-1.2-3.6-1.2c-3,0-4.8,2.2-4.8,4.9c0,3,2,5,4.7,5
				c2.2,0,3.6-1.6,3.6-1.6v-1.8h-2.1v-1.5h3.7v6.4h-1.6v-0.8c0-0.3,0-0.5,0-0.5h0c0,0-1.4,1.5-3.9,1.5c-3.4,0-6.2-2.7-6.2-6.6
				C171.1,251.2,173.9,248.3,177.6,248.3z"/>
			<path fill="#5D6B7E" d="M189.5,251.9c2.7,0,4.9,2,4.9,4.8c0,2.8-2.2,4.8-4.9,4.8c-2.7,0-4.9-2-4.9-4.8
				C184.6,253.9,186.8,251.9,189.5,251.9z M189.5,259.9c1.7,0,3.1-1.4,3.1-3.3c0-1.9-1.4-3.2-3.1-3.2c-1.7,0-3.1,1.4-3.1,3.2
				C186.4,258.5,187.8,259.9,189.5,259.9z"/>
			<path fill="#5D6B7E" d="M196.4,248.5h1.7v9.9c0,1.1,0.4,1.3,1,1.3c0.2,0,0.3,0,0.3,0v1.5c0,0-0.3,0-0.6,0c-1,0-2.4-0.3-2.4-2.6
				V248.5z"/>
			<path fill="#5D6B7E" d="M204.8,251.9c2.1,0,2.8,1.4,2.8,1.4h0c0,0,0-0.3,0-0.6v-4.2h1.7v12.7h-1.7v-0.9c0-0.4,0-0.6,0-0.6h0
				c0,0-0.7,1.7-3,1.7c-2.5,0-4-1.9-4-4.8C200.7,253.8,202.4,251.9,204.8,251.9z M205.1,259.9c1.4,0,2.6-1,2.6-3.3
				c0-1.6-0.8-3.2-2.6-3.2c-1.4,0-2.6,1.2-2.6,3.3C202.5,258.6,203.6,259.9,205.1,259.9z"/>
		</g>
	</g>
	<g>
		<g>
			<path fill="#5D6B7E" d="M249.7,248.5h4.6c2.3,0,4,1.6,4,4c0,2.4-1.7,4-4,4h-2.9v4.7h-1.8V248.5z M254,255c1.5,0,2.5-1,2.5-2.5
				c0-1.5-0.9-2.4-2.4-2.4h-2.6v4.9H254z"/>
			<path fill="#5D6B7E" d="M260.1,248.5h1.7v9.9c0,1.1,0.4,1.3,1,1.3c0.2,0,0.3,0,0.3,0v1.5c0,0-0.3,0-0.6,0c-1,0-2.4-0.3-2.4-2.6
				V248.5z"/>
			<path fill="#5D6B7E" d="M269.7,255.5h0.4v-0.2c0-1.5-0.8-2-2-2c-1.4,0-2.5,0.9-2.5,0.9l-0.7-1.3c0,0,1.3-1.1,3.4-1.1
				c2.3,0,3.6,1.3,3.6,3.6v5.8h-1.6v-0.9c0-0.4,0-0.7,0-0.7h0c0,0-0.7,1.8-2.9,1.8c-1.6,0-3.1-1-3.1-2.8
				C264.3,255.6,268.2,255.5,269.7,255.5z M267.7,260c1.5,0,2.4-1.5,2.4-2.9v-0.3h-0.5c-1.3,0-3.7,0.1-3.7,1.7
				C266,259.3,266.6,260,267.7,260z"/>
			<path fill="#5D6B7E" d="M274.8,253.6h-1.2v-1.4h1.2v-2.6h1.7v2.6h2.2v1.4h-2.2v4.1c0,1.8,1.3,2.1,1.9,2.1c0.3,0,0.4,0,0.4,0v1.5
				c0,0-0.3,0-0.6,0c-1.2,0-3.5-0.4-3.5-3.4V253.6z"/>
			<path fill="#5D6B7E" d="M280.9,248.5h1.8v1.8h-1.8V248.5z M280.9,252.1h1.7v9.1h-1.7V252.1z"/>
			<path fill="#5D6B7E" d="M285.4,252.1h1.7v1.2c0,0.4,0,0.7,0,0.7h0c0.4-0.8,1.4-2.1,3.4-2.1c2.1,0,3.1,1.2,3.1,3.5v5.8h-1.7v-5.4
				c0-1.3-0.3-2.3-1.7-2.3c-1.4,0-2.5,0.9-2.9,2.2c-0.1,0.4-0.1,0.8-0.1,1.2v4.3h-1.7V252.1z"/>
			<path fill="#5D6B7E" d="M296.1,252.1h1.7v5.4c0,1.3,0.3,2.3,1.7,2.3c1.9,0,3-1.6,3-3.4v-4.3h1.7v9.1h-1.7V260c0-0.4,0-0.7,0-0.7
				h0c-0.4,0.9-1.6,2.1-3.3,2.1c-2.1,0-3.1-1.1-3.1-3.5V252.1z"/>
			<path fill="#5D6B7E" d="M307,252.1h1.7v1.2c0,0.4,0,0.7,0,0.7h0c0.4-1.1,1.7-2.1,3.1-2.1c1.5,0,2.4,0.7,2.7,2.1h0
				c0.5-1.1,1.8-2.1,3.2-2.1c2.1,0,3,1.2,3,3.5v5.8h-1.7v-5.5c0-1.3-0.3-2.3-1.6-2.3c-1.3,0-2.2,1.1-2.6,2.3
				c-0.1,0.4-0.1,0.8-0.1,1.3v4.2H313v-5.5c0-1.2-0.2-2.3-1.6-2.3c-1.3,0-2.3,1.1-2.6,2.4c-0.1,0.4-0.1,0.8-0.1,1.2v4.2H307V252.1z"
				/>
		</g>
	</g>
	<g>
		<g>
			<path fill="#5D6B7E" d="M357.2,248.5h4.6c2.3,0,4,1.6,4,4c0,2.4-1.7,4-4,4H359v4.7h-1.8V248.5z M361.6,255c1.5,0,2.5-1,2.5-2.5
				c0-1.5-0.9-2.4-2.4-2.4H359v4.9H361.6z"/>
			<path fill="#5D6B7E" d="M367.8,252.1h1.7v1.6c0,0.4,0,0.7,0,0.7h0c0.4-1.3,1.5-2.4,2.9-2.4c0.2,0,0.5,0,0.5,0v1.7
				c0,0-0.2-0.1-0.5-0.1c-1.1,0-2.1,0.8-2.6,2.1c-0.2,0.5-0.2,1.1-0.2,1.6v3.7h-1.7V252.1z"/>
			<path fill="#5D6B7E" d="M374.5,248.5h1.8v1.8h-1.8V248.5z M374.6,252.1h1.7v9.1h-1.7V252.1z"/>
			<path fill="#5D6B7E" d="M379,252.1h1.7v1.2c0,0.4,0,0.7,0,0.7h0c0.4-1.1,1.7-2.1,3.1-2.1c1.5,0,2.4,0.7,2.7,2.1h0
				c0.5-1.1,1.8-2.1,3.2-2.1c2.1,0,3,1.2,3,3.5v5.8h-1.7v-5.5c0-1.3-0.3-2.3-1.6-2.3c-1.3,0-2.2,1.1-2.6,2.3
				c-0.1,0.4-0.1,0.8-0.1,1.3v4.2h-1.7v-5.5c0-1.2-0.2-2.3-1.6-2.3c-1.3,0-2.3,1.1-2.6,2.4c-0.1,0.4-0.1,0.8-0.1,1.2v4.2H379V252.1z
				"/>
			<path fill="#5D6B7E" d="M399.4,251.9c2.6,0,3.9,1.9,3.9,4.3c0,0.2-0.1,0.8-0.1,0.8h-6.6c0.1,2,1.5,3,3.1,3c1.6,0,2.7-1.1,2.7-1.1
				l0.7,1.3c0,0-1.4,1.3-3.5,1.3c-2.9,0-4.8-2.1-4.8-4.8C394.9,253.8,396.8,251.9,399.4,251.9z M401.6,255.6c-0.1-1.6-1-2.3-2.2-2.3
				c-1.3,0-2.4,0.8-2.7,2.3H401.6z"/>
		</g>
	</g>
	<g>
		<path fill="#AF8F4F" d="M195.2,287.8c-0.1,0.1-0.2,0.2-0.3,0.2l-0.3,0.5c-0.4,0.8-1.3,1.3-2.2,1.3c-0.4,0-0.8-0.1-1.1-0.3
			l-0.6,2.2l1.8,7l1.9-3.4l3.4,1.9L195.2,287.8z"/>
		<path fill="#A4854A" d="M191.3,289.5l-0.5-0.3c0,0-0.2-0.1-0.3-0.1c-0.2,0-0.3,0-0.3,0.1l0.6,2.5l0.6-2.2
			C191.4,289.5,191.3,289.5,191.3,289.5z"/>
		<path fill="#A4854A" d="M188.3,281.7l1.9,7.5c0,0,0.1-0.1,0.3-0.1c0.2,0,0.3,0,0.3,0.1l0.5,0.3c0.4,0.2,0.8,0.3,1.2,0.3
			c0.9,0,1.8-0.5,2.2-1.3l0.3-0.5c0-0.1,0.1-0.2,0.3-0.2l-2.1-7.4L188.3,281.7z"/>
		<path fill="#C4A25B" d="M190.2,289.2l-0.5,0.3c-0.4,0.2-0.8,0.3-1.2,0.3c-0.9,0-1.8-0.5-2.2-1.3L186,288c-0.1-0.1-0.3-0.3-0.5-0.3
			l-2.7,9.7l3.4-1.9l1.9,3.4l2.4-9.6c0,0,0,0-0.1,0C190.3,289.2,190.2,289.2,190.2,289.2z"/>
		<path fill="#AF8F4F" d="M187.6,280.4l-2.1,7.2c0.2,0,0.4,0.2,0.5,0.3l0.3,0.5c0.4,0.8,1.3,1.3,2.2,1.3c0.4,0,0.9-0.1,1.2-0.3
			l0.5-0.3c0,0,0.1-0.1,0.3-0.1c0,0,0,0,0.1,0l1.9-7.4L187.6,280.4z"/>
		<path fill="#CCA95F" d="M192.5,288.9c-0.3,0-0.5-0.1-0.8-0.2l-0.5-0.3c-0.2-0.1-0.5-0.2-0.8-0.2c-0.3,0-0.6,0.1-0.8,0.2l-0.5,0.3
			c-0.2,0.1-0.5,0.2-0.8,0.2c-0.6,0-1.1-0.3-1.4-0.8l-0.3-0.5c-0.2-0.4-0.8-0.8-1.3-0.8l-0.5,0c-0.4,0-0.8-0.2-1.1-0.5
			c-0.3-0.3-0.4-0.7-0.4-1.2l0-0.5c0-0.5-0.3-1.1-0.6-1.4l-0.4-0.3c-0.3-0.3-0.6-0.6-0.6-1c-0.1-0.4,0.1-0.8,0.3-1.2l0.3-0.4
			c0.3-0.4,0.4-1.1,0.2-1.5l-0.2-0.5c-0.2-0.4-0.1-0.8,0-1.2c0.2-0.4,0.5-0.7,0.9-0.8l0.5-0.2c0.4-0.2,0.9-0.7,1-1.2l0.1-0.5
			c0.1-0.7,0.8-1.3,1.5-1.3c0.1,0,0.2,0,0.4,0l0.5,0.1c0.1,0,0.2,0,0.3,0c0.4,0,0.9-0.2,1.2-0.5l0.4-0.4c0.3-0.3,0.7-0.5,1.1-0.5
			s0.8,0.2,1.1,0.5l0.4,0.4c0.3,0.3,0.8,0.5,1.2,0.5c0.1,0,0.2,0,0.3,0l0.5-0.1c0.1,0,0.2,0,0.4,0c0.7,0,1.4,0.5,1.5,1.3l0.1,0.5
			c0.1,0.5,0.6,1,1,1.2l0.5,0.2c0.4,0.1,0.7,0.4,0.9,0.8c0.2,0.4,0.2,0.8,0,1.2l-0.2,0.5c-0.2,0.4-0.1,1.1,0.2,1.5l0.3,0.4
			c0.3,0.3,0.4,0.8,0.3,1.2c-0.1,0.4-0.3,0.8-0.6,1l-0.4,0.3c-0.4,0.3-0.7,0.9-0.6,1.4l0,0.5c0,0.4-0.1,0.8-0.4,1.2
			c-0.3,0.3-0.7,0.5-1.1,0.5l-0.5,0c-0.5,0-1.1,0.4-1.3,0.8l-0.3,0.5C193.6,288.6,193.1,288.9,192.5,288.9z"/>
		<path fill="#AD8D4E" d="M190.3,285.9c-3,0-5.5-2.5-5.5-5.5c0-3,2.5-5.5,5.5-5.5c3,0,5.5,2.5,5.5,5.5
			C195.8,283.4,193.3,285.9,190.3,285.9z"/>
		<path fill="#DBB667" d="M190.3,285c-2.5,0-4.6-2-4.6-4.6c0-2.5,2-4.6,4.6-4.6s4.6,2,4.6,4.6C194.9,282.9,192.8,285,190.3,285z"/>
	</g>
	<g>
		<path fill="#B9B9B9" d="M100.4,287.8c-0.1,0.1-0.2,0.2-0.3,0.2l-0.3,0.5c-0.4,0.8-1.3,1.3-2.2,1.3c-0.4,0-0.8-0.1-1.1-0.3
			l-0.6,2.2l1.8,7l1.9-3.4l3.4,1.9L100.4,287.8z"/>
		<path fill="#979797" d="M96.5,289.5l-0.5-0.3c0,0-0.2-0.1-0.3-0.1c-0.2,0-0.3,0-0.3,0.1l0.6,2.5l0.6-2.2
			C96.6,289.5,96.5,289.5,96.5,289.5z"/>
		<path fill="#979797" d="M93.5,281.7l1.9,7.5c0,0,0.1-0.1,0.3-0.1c0.2,0,0.3,0,0.3,0.1l0.5,0.3c0.4,0.2,0.8,0.3,1.2,0.3
			c0.9,0,1.8-0.5,2.2-1.3l0.3-0.5c0-0.1,0.1-0.2,0.3-0.2l-2.1-7.4L93.5,281.7z"/>
		<path fill="#C9C9C9" d="M95.4,289.2l-0.5,0.3c-0.4,0.2-0.8,0.3-1.2,0.3c-0.9,0-1.8-0.5-2.2-1.3l-0.3-0.5c-0.1-0.1-0.3-0.3-0.5-0.3
			l-2.7,9.7l3.4-1.9l1.9,3.4l2.4-9.6c0,0,0,0-0.1,0C95.6,289.2,95.4,289.2,95.4,289.2z"/>
		<path fill="#A9A9A9" d="M92.8,280.4l-2.1,7.2c0.2,0,0.4,0.2,0.5,0.3l0.3,0.5c0.4,0.8,1.3,1.3,2.2,1.3c0.4,0,0.9-0.1,1.2-0.3
			l0.5-0.3c0,0,0.1-0.1,0.3-0.1c0,0,0,0,0.1,0l1.9-7.4L92.8,280.4z"/>
		<path fill="#B9B9B9" d="M97.7,288.9c-0.3,0-0.5-0.1-0.8-0.2l-0.5-0.3c-0.2-0.1-0.5-0.2-0.8-0.2c-0.3,0-0.6,0.1-0.8,0.2l-0.5,0.3
			c-0.2,0.1-0.5,0.2-0.8,0.2c-0.6,0-1.1-0.3-1.4-0.8l-0.3-0.5c-0.2-0.4-0.8-0.8-1.3-0.8l-0.5,0c-0.4,0-0.8-0.2-1.1-0.5
			c-0.3-0.3-0.4-0.7-0.4-1.2l0-0.5c0-0.5-0.3-1.1-0.6-1.4l-0.4-0.3c-0.3-0.3-0.6-0.6-0.6-1c-0.1-0.4,0.1-0.8,0.3-1.2l0.3-0.4
			c0.3-0.4,0.4-1.1,0.2-1.5l-0.2-0.5c-0.2-0.4-0.1-0.8,0-1.2c0.2-0.4,0.5-0.7,0.9-0.8l0.5-0.2c0.4-0.2,0.9-0.7,1-1.2l0.1-0.5
			c0.1-0.7,0.8-1.3,1.5-1.3c0.1,0,0.2,0,0.4,0l0.5,0.1c0.1,0,0.2,0,0.3,0c0.4,0,0.9-0.2,1.2-0.5l0.4-0.4c0.3-0.3,0.7-0.5,1.1-0.5
			c0.4,0,0.8,0.2,1.1,0.5l0.4,0.4c0.3,0.3,0.8,0.5,1.2,0.5c0.1,0,0.2,0,0.3,0l0.5-0.1c0.1,0,0.2,0,0.4,0c0.7,0,1.4,0.5,1.5,1.3
			l0.1,0.5c0.1,0.5,0.6,1,1,1.2l0.5,0.2c0.4,0.1,0.7,0.4,0.9,0.8c0.2,0.4,0.2,0.8,0,1.2l-0.2,0.5c-0.2,0.4-0.1,1.1,0.2,1.5l0.3,0.4
			c0.3,0.3,0.4,0.8,0.3,1.2c-0.1,0.4-0.3,0.8-0.6,1l-0.4,0.3c-0.4,0.3-0.7,0.9-0.6,1.4l0,0.5c0,0.4-0.1,0.8-0.4,1.2
			c-0.3,0.3-0.7,0.5-1.1,0.5l-0.5,0c-0.5,0-1.1,0.4-1.3,0.8l-0.3,0.5C98.9,288.6,98.3,288.9,97.7,288.9z"/>
		<path fill="#9C9C9C" d="M95.5,285.9c-3,0-5.5-2.5-5.5-5.5c0-3,2.5-5.5,5.5-5.5c3,0,5.5,2.5,5.5,5.5
			C101,283.4,98.6,285.9,95.5,285.9z"/>
		<path fill="#CCCCCC" d="M95.5,285c-2.5,0-4.6-2-4.6-4.6c0-2.5,2-4.6,4.6-4.6c2.5,0,4.6,2,4.6,4.6C100.1,282.9,98.1,285,95.5,285z"
			/>
	</g>
	<g>
		<path fill="#96A0A4" d="M289.7,287.8c-0.1,0.1-0.2,0.2-0.3,0.2l-0.3,0.5c-0.4,0.8-1.3,1.3-2.2,1.3c-0.4,0-0.8-0.1-1.1-0.3
			l-0.6,2.2l1.8,7l1.9-3.4l3.4,1.9L289.7,287.8z"/>
		<path fill="#757E82" d="M285.8,289.5l-0.5-0.3c0,0-0.2-0.1-0.3-0.1c-0.2,0-0.3,0-0.3,0.1l0.6,2.5l0.6-2.2
			C285.9,289.5,285.8,289.5,285.8,289.5z"/>
		<path fill="#757E82" d="M282.8,281.7l1.9,7.5c0,0,0.1-0.1,0.3-0.1c0.2,0,0.3,0,0.3,0.1l0.5,0.3c0.4,0.2,0.8,0.3,1.2,0.3
			c0.9,0,1.8-0.5,2.2-1.3l0.3-0.5c0-0.1,0.1-0.2,0.3-0.2l-2.1-7.4L282.8,281.7z"/>
		<path fill="#ABB6BA" d="M284.7,289.2l-0.5,0.3c-0.4,0.2-0.8,0.3-1.2,0.3c-0.9,0-1.8-0.5-2.2-1.3l-0.3-0.5
			c-0.1-0.1-0.3-0.3-0.5-0.3l-2.7,9.7l3.4-1.9l1.9,3.4l2.4-9.6c0,0,0,0-0.1,0C284.8,289.2,284.7,289.2,284.7,289.2z"/>
		<path fill="#879195" d="M282.1,280.4l-2.1,7.2c0.2,0,0.4,0.2,0.5,0.3l0.3,0.5c0.4,0.8,1.3,1.3,2.2,1.3c0.4,0,0.9-0.1,1.2-0.3
			l0.5-0.3c0,0,0.1-0.1,0.3-0.1c0,0,0,0,0.1,0l1.9-7.4L282.1,280.4z"/>
		<path fill="#A2ACB0" d="M287,288.9c-0.3,0-0.5-0.1-0.8-0.2l-0.5-0.3c-0.2-0.1-0.5-0.2-0.8-0.2c-0.3,0-0.6,0.1-0.8,0.2l-0.5,0.3
			c-0.2,0.1-0.5,0.2-0.8,0.2c-0.6,0-1.1-0.3-1.4-0.8l-0.3-0.5c-0.2-0.4-0.8-0.8-1.3-0.8l-0.5,0c-0.4,0-0.8-0.2-1.1-0.5
			c-0.3-0.3-0.4-0.7-0.4-1.2l0-0.5c0-0.5-0.3-1.1-0.6-1.4l-0.4-0.3c-0.3-0.3-0.6-0.6-0.6-1c-0.1-0.4,0.1-0.8,0.3-1.2l0.3-0.4
			c0.3-0.4,0.4-1.1,0.2-1.5l-0.2-0.5c-0.2-0.4-0.1-0.8,0-1.2c0.2-0.4,0.5-0.7,0.9-0.8l0.5-0.2c0.4-0.2,0.9-0.7,1-1.2l0.1-0.5
			c0.1-0.7,0.8-1.3,1.5-1.3c0.1,0,0.2,0,0.4,0l0.5,0.1c0.1,0,0.2,0,0.3,0c0.4,0,0.9-0.2,1.2-0.5l0.4-0.4c0.3-0.3,0.7-0.5,1.1-0.5
			s0.8,0.2,1.1,0.5l0.4,0.4c0.3,0.3,0.8,0.5,1.2,0.5c0.1,0,0.2,0,0.3,0l0.5-0.1c0.1,0,0.2,0,0.4,0c0.7,0,1.4,0.5,1.5,1.3l0.1,0.5
			c0.1,0.5,0.6,1,1,1.2l0.5,0.2c0.4,0.1,0.7,0.4,0.9,0.8c0.2,0.4,0.2,0.8,0,1.2l-0.2,0.5c-0.2,0.4-0.1,1.1,0.2,1.5l0.3,0.4
			c0.3,0.3,0.4,0.8,0.3,1.2c-0.1,0.4-0.3,0.8-0.6,1l-0.4,0.3c-0.4,0.3-0.7,0.9-0.6,1.4l0,0.5c0,0.4-0.1,0.8-0.4,1.2
			c-0.3,0.3-0.7,0.5-1.1,0.5l-0.5,0c-0.5,0-1.1,0.4-1.3,0.8l-0.3,0.5C288.1,288.6,287.6,288.9,287,288.9z"/>
		<path fill="#7C8589" d="M284.8,285.9c-3,0-5.5-2.5-5.5-5.5c0-3,2.5-5.5,5.5-5.5s5.5,2.5,5.5,5.5
			C290.3,283.4,287.8,285.9,284.8,285.9z"/>
		<path fill="#ABB6BA" d="M284.8,285c-2.5,0-4.6-2-4.6-4.6c0-2.5,2-4.6,4.6-4.6c2.5,0,4.6,2,4.6,4.6
			C289.4,282.9,287.3,285,284.8,285z"/>
	</g>
	<g>
		<path fill="#5B677C" d="M384.5,287.8c-0.1,0.1-0.2,0.2-0.3,0.2l-0.3,0.5c-0.4,0.8-1.3,1.3-2.2,1.3c-0.4,0-0.8-0.1-1.1-0.3
			l-0.6,2.2l1.8,7l1.9-3.4l3.4,1.9L384.5,287.8z"/>
		<path fill="#4E596D" d="M380.6,289.5l-0.5-0.3c0,0-0.2-0.1-0.3-0.1c-0.2,0-0.3,0-0.3,0.1l0.6,2.5l0.6-2.2
			C380.7,289.5,380.6,289.5,380.6,289.5z"/>
		<path fill="#4E596D" d="M377.6,281.7l1.9,7.5c0,0,0.1-0.1,0.3-0.1c0.2,0,0.3,0,0.3,0.1l0.5,0.3c0.4,0.2,0.8,0.3,1.2,0.3
			c0.9,0,1.8-0.5,2.2-1.3l0.3-0.5c0-0.1,0.1-0.2,0.3-0.2l-2.1-7.4L377.6,281.7z"/>
		<path fill="#768499" d="M379.5,289.2l-0.5,0.3c-0.4,0.2-0.8,0.3-1.2,0.3c-0.9,0-1.8-0.5-2.2-1.3l-0.3-0.5
			c-0.1-0.1-0.3-0.3-0.5-0.3l-2.7,9.7l3.4-1.9l1.9,3.4l2.4-9.6c0,0,0,0-0.1,0C379.6,289.2,379.5,289.2,379.5,289.2z"/>
		<path fill="#5C687D" d="M376.9,280.4l-2.1,7.2c0.2,0,0.4,0.2,0.5,0.3l0.3,0.5c0.4,0.8,1.3,1.3,2.2,1.3c0.4,0,0.9-0.1,1.2-0.3
			l0.5-0.3c0,0,0.1-0.1,0.3-0.1c0,0,0,0,0.1,0l1.9-7.4L376.9,280.4z"/>
		<path fill="#6F7D91" d="M381.8,288.9c-0.3,0-0.5-0.1-0.8-0.2l-0.5-0.3c-0.2-0.1-0.5-0.2-0.8-0.2c-0.3,0-0.6,0.1-0.8,0.2l-0.5,0.3
			c-0.2,0.1-0.5,0.2-0.8,0.2c-0.6,0-1.1-0.3-1.4-0.8l-0.3-0.5c-0.2-0.4-0.8-0.8-1.3-0.8l-0.5,0c-0.4,0-0.8-0.2-1.1-0.5
			c-0.3-0.3-0.4-0.7-0.4-1.2l0-0.5c0-0.5-0.3-1.1-0.6-1.4l-0.4-0.3c-0.3-0.3-0.6-0.6-0.6-1c-0.1-0.4,0.1-0.8,0.3-1.2l0.3-0.4
			c0.3-0.4,0.4-1.1,0.2-1.5l-0.2-0.5c-0.2-0.4-0.1-0.8,0-1.2c0.2-0.4,0.5-0.7,0.9-0.8l0.5-0.2c0.4-0.2,0.9-0.7,1-1.2l0.1-0.5
			c0.1-0.7,0.8-1.3,1.5-1.3c0.1,0,0.2,0,0.4,0l0.5,0.1c0.1,0,0.2,0,0.3,0c0.4,0,0.9-0.2,1.2-0.5l0.4-0.4c0.3-0.3,0.7-0.5,1.1-0.5
			c0.4,0,0.8,0.2,1.1,0.5l0.4,0.4c0.3,0.3,0.8,0.5,1.2,0.5c0.1,0,0.2,0,0.3,0l0.5-0.1c0.1,0,0.2,0,0.4,0c0.7,0,1.4,0.5,1.5,1.3
			l0.1,0.5c0.1,0.5,0.6,1,1,1.2l0.5,0.2c0.4,0.1,0.7,0.4,0.9,0.8c0.2,0.4,0.2,0.8,0,1.2l-0.2,0.5c-0.2,0.4-0.1,1.1,0.2,1.5l0.3,0.4
			c0.3,0.3,0.4,0.8,0.3,1.2c-0.1,0.4-0.3,0.8-0.6,1l-0.4,0.3c-0.4,0.3-0.7,0.9-0.6,1.4l0,0.5c0,0.4-0.1,0.8-0.4,1.2
			c-0.3,0.3-0.7,0.5-1.1,0.5l-0.5,0c-0.5,0-1.1,0.4-1.3,0.8l-0.3,0.5C382.9,288.6,382.4,288.9,381.8,288.9z"/>
		<path fill="#566276" d="M379.6,285.9c-3,0-5.5-2.5-5.5-5.5c0-3,2.5-5.5,5.5-5.5s5.5,2.5,5.5,5.5
			C385.1,283.4,382.6,285.9,379.6,285.9z"/>
		<path fill="#79889D" d="M379.6,285c-2.5,0-4.6-2-4.6-4.6c0-2.5,2-4.6,4.6-4.6s4.6,2,4.6,4.6C384.2,282.9,382.1,285,379.6,285z"/>
	</g>
</g>
<g opacity="0.35">
	<g>
		<rect x="50" y="192" fill="#C6CCD6" width="379" height="1"/>
	</g>
	<g>
		<rect x="50" y="170" fill="#C6CCD6" width="379" height="1"/>
	</g>
	<g>
		<rect x="50" y="214" fill="#C6CCD6" width="379" height="1"/>
	</g>
	<g>
		<rect x="50" y="149" fill="#C6CCD6" width="379" height="1"/>
	</g>
	<g>
		<rect x="50" y="127" fill="#C6CCD6" width="379" height="1"/>
	</g>
	<g>
		<rect x="50" y="105" fill="#C6CCD6" width="379" height="1"/>
	</g>
	<g>
		<rect x="50" y="83" fill="#C6CCD6" width="379" height="1"/>
	</g>
	<g>
		<rect x="50" y="62" fill="#C6CCD6" width="379" height="1"/>
	</g>
	<g>
		<rect x="50" y="40" fill="#C6CCD6" width="379" height="1"/>
	</g>
</g>
<g id="payday_lenders_comparison_x21__x21__x21__1_">
	<g>
		<g>
			<path fill="#3B495D" d="M77.9,19.6l5.9-8.2h2v7.8h1.7v1.5h-1.7v3.4h-1.7v-3.4h-6.2V19.6z M84.1,19.2v-4.6c0-0.6,0.1-1.3,0.1-1.3
				h0c0,0-0.3,0.6-0.6,1l-3.6,4.8v0H84.1z"/>
			<path fill="#3B495D" d="M89.3,18.3c0-3.3,1.8-7.1,5.7-7.1c1.5,0,2.5,0.5,2.5,0.5l-0.6,1.5c0,0-0.8-0.4-1.8-0.4
				c-2.3,0-3.5,2.2-3.8,4.3h0c0.5-0.7,1.7-1.2,2.8-1.2c2.4,0,4,1.8,4,4.2c0,2.5-1.7,4.2-4.1,4.2C91.4,24.3,89.3,21.9,89.3,18.3z
				 M96.4,20c0-1.5-1-2.7-2.6-2.7c-1.4,0-2.6,0.9-2.6,1.8c0,1.7,1.2,3.5,2.9,3.5C95.5,22.7,96.4,21.5,96.4,20z"/>
			<path fill="#3B495D" d="M100.2,17.7c0-3.7,1.1-6.6,4.5-6.6c3.4,0,4.5,2.9,4.5,6.6c0,3.7-1.1,6.6-4.5,6.6
				C101.3,24.3,100.2,21.4,100.2,17.7z M107.3,17.7c0-2.8-0.6-4.9-2.7-4.9c-2.1,0-2.7,2.2-2.7,4.9c0,2.8,0.6,5,2.7,5
				C106.7,22.7,107.3,20.5,107.3,17.7z"/>
			<path fill="#3B495D" d="M111.2,13.8c0-1.5,1.2-2.7,2.7-2.7s2.7,1.2,2.7,2.7c0,1.5-1.2,2.7-2.7,2.7S111.2,15.3,111.2,13.8z
				 M121.1,11.4h1.7l-9.7,12.7h-1.7L121.1,11.4z M115.2,13.8c0-0.7-0.6-1.4-1.3-1.4s-1.3,0.6-1.3,1.4c0,0.8,0.6,1.3,1.3,1.3
				S115.2,14.6,115.2,13.8z M120.4,19c1.5,0,2.7,1.2,2.7,2.7c0,1.5-1.2,2.7-2.7,2.7c-1.5,0-2.7-1.2-2.7-2.7
				C117.7,20.2,118.9,19,120.4,19z M120.4,23c0.7,0,1.3-0.6,1.3-1.3c0-0.7-0.6-1.4-1.3-1.4c-0.8,0-1.3,0.6-1.3,1.4
				C119.1,22.4,119.7,23,120.4,23z"/>
		</g>
	</g>
	<g>
		<g opacity="0.2">
			
				<line fill="none" stroke="#3B495D" stroke-width="4" stroke-linecap="round" stroke-miterlimit="10" x1="192" y1="35" x2="98" y2="35"/>
			
				<line fill="none" stroke="#3B495D" stroke-width="4" stroke-linecap="round" stroke-miterlimit="10" x1="287" y1="35" x2="192" y2="35"/>
			
				<line fill="none" stroke="#3B495D" stroke-width="4" stroke-linecap="round" stroke-miterlimit="10" x1="381" y1="35" x2="287" y2="35"/>
		</g>
		<g>
			<g>
				<g>
					
						<line fill="none" stroke="#728097" stroke-width="4" stroke-linecap="round" stroke-miterlimit="10" x1="191" y1="36" x2="97" y2="36"/>
					
						<line fill="none" stroke="#728097" stroke-width="4" stroke-linecap="round" stroke-miterlimit="10" x1="286" y1="36" x2="191" y2="36"/>
					
						<line fill="none" stroke="#728097" stroke-width="4" stroke-linecap="round" stroke-miterlimit="10" x1="380" y1="36" x2="286" y2="36"/>
				</g>
			</g>
		</g>
	</g>
	<circle fill="#FFFFFF" stroke="#728097" stroke-width="4" stroke-miterlimit="10" cx="96.2" cy="36" r="4.5"/>
	<circle fill="#FFFFFF" stroke="#728097" stroke-width="4" stroke-miterlimit="10" cx="191.2" cy="36" r="4.5"/>
	<circle fill="#FFFFFF" stroke="#728097" stroke-width="4" stroke-miterlimit="10" cx="285.2" cy="36" r="4.5"/>
	<circle fill="#FFFFFF" stroke="#728097" stroke-width="4" stroke-miterlimit="10" cx="380.2" cy="36" r="4.5"/>
	<g>
		<g opacity="0.75">
			<g>
				<path fill="#5D6B7E" d="M328.3,70h3.6c1.8,0,3.1,1.2,3.1,3.1s-1.3,3.1-3.1,3.1h-2.2v3.7h-1.4V70z M331.7,75
					c1.2,0,1.9-0.7,1.9-1.9c0-1.2-0.7-1.9-1.9-1.9h-2V75H331.7z"/>
				<path fill="#5D6B7E" d="M340.3,75.5h0.3v-0.1c0-1.2-0.7-1.6-1.6-1.6c-1.1,0-2,0.7-2,0.7l-0.6-1c0,0,1-0.8,2.6-0.8
					c1.8,0,2.8,1,2.8,2.8v4.5h-1.3v-0.7c0-0.3,0-0.6,0-0.6h0c0,0-0.6,1.4-2.3,1.4c-1.2,0-2.4-0.7-2.4-2.2
					C336,75.6,339.1,75.5,340.3,75.5z M338.7,79c1.1,0,1.9-1.2,1.9-2.3v-0.2h-0.4c-1,0-2.9,0.1-2.9,1.3
					C337.4,78.4,337.8,79,338.7,79z"/>
				<path fill="#5D6B7E" d="M343.4,81.4c0,0,0.4,0.3,0.8,0.3c0.5,0,1-0.4,1.3-1l0.4-0.8l-3-7h1.5l1.8,4.6c0.1,0.4,0.3,0.9,0.3,0.9h0
					c0,0,0.1-0.5,0.2-0.8l1.7-4.7h1.5l-3.3,8.4c-0.4,1.1-1.3,1.7-2.3,1.7c-0.8,0-1.4-0.4-1.4-0.4L343.4,81.4z"/>
				<path fill="#5D6B7E" d="M353.8,72.6c1.6,0,2.2,1.1,2.2,1.1h0c0,0,0-0.2,0-0.5V70h1.4v9.9h-1.3v-0.7c0-0.3,0-0.5,0-0.5h0
					c0,0-0.6,1.3-2.3,1.3c-1.9,0-3.1-1.5-3.1-3.7C350.6,74.1,352,72.6,353.8,72.6z M354,78.9c1.1,0,2-0.7,2-2.5c0-1.3-0.7-2.5-2-2.5
					c-1.1,0-2,0.9-2,2.5C352,77.9,352.8,78.9,354,78.9z"/>
				<path fill="#5D6B7E" d="M363.2,75.5h0.3v-0.1c0-1.2-0.7-1.6-1.6-1.6c-1.1,0-2,0.7-2,0.7l-0.6-1c0,0,1-0.8,2.6-0.8
					c1.8,0,2.8,1,2.8,2.8v4.5h-1.3v-0.7c0-0.3,0-0.6,0-0.6h0c0,0-0.6,1.4-2.3,1.4c-1.2,0-2.4-0.7-2.4-2.2
					C358.9,75.6,362,75.5,363.2,75.5z M361.6,79c1.1,0,1.9-1.2,1.9-2.3v-0.2h-0.4c-1,0-2.9,0.1-2.9,1.3
					C360.3,78.4,360.8,79,361.6,79z"/>
				<path fill="#5D6B7E" d="M366.4,81.4c0,0,0.4,0.3,0.8,0.3c0.5,0,1-0.4,1.3-1l0.4-0.8l-3-7h1.5l1.8,4.6c0.1,0.4,0.3,0.9,0.3,0.9h0
					c0,0,0.1-0.5,0.2-0.8l1.7-4.7h1.5l-3.3,8.4c-0.4,1.1-1.3,1.7-2.3,1.7c-0.8,0-1.4-0.4-1.4-0.4L366.4,81.4z"/>
				<path fill="#5D6B7E" d="M377.9,70h1.4v8.7h4.4v1.2h-5.8V70z"/>
				<path fill="#5D6B7E" d="M388.1,72.6c2,0,3.1,1.5,3.1,3.3c0,0.2,0,0.6,0,0.6H386c0.1,1.6,1.2,2.3,2.4,2.3c1.2,0,2.1-0.8,2.1-0.8
					l0.6,1c0,0-1.1,1-2.7,1c-2.2,0-3.8-1.6-3.8-3.7C384.6,74.1,386.1,72.6,388.1,72.6z M389.8,75.5c0-1.2-0.8-1.8-1.7-1.8
					c-1,0-1.9,0.6-2.1,1.8H389.8z"/>
				<path fill="#5D6B7E" d="M392.8,72.8h1.3v0.9c0,0.3,0,0.5,0,0.5h0c0.3-0.6,1.1-1.6,2.7-1.6c1.7,0,2.4,0.9,2.4,2.7v4.5h-1.4v-4.2
					c0-1-0.2-1.8-1.3-1.8c-1.1,0-1.9,0.7-2.2,1.7c-0.1,0.3-0.1,0.6-0.1,1v3.3h-1.4V72.8z"/>
				<path fill="#5D6B7E" d="M404,72.6c1.6,0,2.2,1.1,2.2,1.1h0c0,0,0-0.2,0-0.5V70h1.4v9.9h-1.3v-0.7c0-0.3,0-0.5,0-0.5h0
					c0,0-0.6,1.3-2.3,1.3c-1.9,0-3.1-1.5-3.1-3.7C400.8,74.1,402.1,72.6,404,72.6z M404.2,78.9c1.1,0,2-0.7,2-2.5
					c0-1.3-0.7-2.5-2-2.5c-1.1,0-2,0.9-2,2.5C402.2,77.9,403,78.9,404.2,78.9z"/>
				<path fill="#5D6B7E" d="M412.7,72.6c2,0,3.1,1.5,3.1,3.3c0,0.2,0,0.6,0,0.6h-5.2c0.1,1.6,1.2,2.3,2.4,2.3c1.2,0,2.1-0.8,2.1-0.8
					l0.6,1c0,0-1.1,1-2.7,1c-2.2,0-3.8-1.6-3.8-3.7C409.2,74.1,410.7,72.6,412.7,72.6z M414.4,75.5c0-1.2-0.8-1.8-1.7-1.8
					c-1,0-1.9,0.6-2.1,1.8H414.4z"/>
				<path fill="#5D6B7E" d="M417.4,72.8h1.3V74c0,0.3,0,0.5,0,0.5h0c0.3-1,1.1-1.8,2.2-1.8c0.2,0,0.4,0,0.4,0v1.3c0,0-0.2,0-0.4,0
					c-0.9,0-1.7,0.6-2,1.7c-0.1,0.4-0.2,0.8-0.2,1.3v2.9h-1.4V72.8z"/>
				<path fill="#5D6B7E" d="M422.8,78c0,0,0.8,0.8,2,0.8c0.6,0,1.2-0.3,1.2-0.9c0-1.3-3.6-1-3.6-3.3c0-1.3,1.1-2,2.6-2
					c1.6,0,2.3,0.8,2.3,0.8l-0.5,1c0,0-0.6-0.6-1.8-0.6c-0.6,0-1.2,0.3-1.2,0.9c0,1.3,3.6,1,3.6,3.3c0,1.2-1,2.1-2.6,2.1
					c-1.7,0-2.7-1-2.7-1L422.8,78z"/>
			</g>
		</g>
		<g>
			<path fill="#728097" d="M320,78h-4c-1.7,0-3-1.3-3-3s1.3-3,3-3h4c1.7,0,3,1.3,3,3S321.7,78,320,78z"/>
		</g>
		<g opacity="0.75">
			<g>
				<path fill="#5D6B7E" d="M328.3,90.9h1.4v8.7h4.4v1.2h-5.8V90.9z"/>
				<path fill="#5D6B7E" d="M338.5,93.5c2,0,3.1,1.5,3.1,3.3c0,0.2,0,0.6,0,0.6h-5.2c0.1,1.6,1.2,2.3,2.4,2.3c1.2,0,2.1-0.8,2.1-0.8
					l0.6,1c0,0-1.1,1-2.7,1c-2.2,0-3.8-1.6-3.8-3.7C335,95,336.5,93.5,338.5,93.5z M340.2,96.4c0-1.2-0.8-1.8-1.7-1.8
					c-1,0-1.9,0.6-2.1,1.8H340.2z"/>
				<path fill="#5D6B7E" d="M343.2,93.7h1.3v0.9c0,0.3,0,0.5,0,0.5h0c0.3-0.6,1.1-1.6,2.7-1.6c1.7,0,2.4,0.9,2.4,2.7v4.5h-1.4v-4.2
					c0-1-0.2-1.8-1.3-1.8c-1.1,0-1.9,0.7-2.2,1.7c-0.1,0.3-0.1,0.6-0.1,1v3.3h-1.4V93.7z"/>
				<path fill="#5D6B7E" d="M354.4,93.5c1.6,0,2.2,1.1,2.2,1.1h0c0,0,0-0.2,0-0.5v-3.3h1.4v9.9h-1.3v-0.7c0-0.3,0-0.5,0-0.5h0
					c0,0-0.6,1.3-2.3,1.3c-1.9,0-3.1-1.5-3.1-3.7C351.2,95,352.6,93.5,354.4,93.5z M354.6,99.7c1.1,0,2-0.7,2-2.5
					c0-1.3-0.7-2.5-2-2.5c-1.1,0-2,0.9-2,2.5C352.6,98.8,353.4,99.7,354.6,99.7z"/>
				<path fill="#5D6B7E" d="M360.2,90.9h1.4v6.4c0,1.5,1,2.4,2.5,2.4c1.5,0,2.5-0.9,2.5-2.4v-6.4h1.4v6.4c0,2.2-1.6,3.7-3.9,3.7
					c-2.3,0-3.9-1.5-3.9-3.7V90.9z"/>
				<path fill="#5D6B7E" d="M370.2,93.7h1.2v0.6c0,0.3,0,0.5,0,0.5h0c0,0,0.6-1.3,2.4-1.3c1.9,0,3.1,1.5,3.1,3.7
					c0,2.3-1.4,3.7-3.2,3.7c-1.6,0-2.2-1.2-2.2-1.2h0c0,0,0,0.3,0,0.6v3.2h-1.4V93.7z M373.6,99.8c1.1,0,2-0.9,2-2.5
					c0-1.5-0.8-2.5-2-2.5c-1.1,0-2,0.7-2,2.5C371.6,98.5,372.3,99.8,373.6,99.8z"/>
			</g>
		</g>
		<g>
			<path fill="#72A84F" d="M320,99h-4c-1.7,0-3-1.3-3-3s1.3-3,3-3h4c1.7,0,3,1.3,3,3S321.7,99,320,99z"/>
		</g>
	</g>
</g>
<g>
	<g>
		<g>
			
				<line fill="none" stroke="#72A84F" stroke-width="4" stroke-linecap="round" stroke-miterlimit="10" x1="191.8" y1="205" x2="97.2" y2="125.3"/>
			
				<line fill="none" stroke="#72A84F" stroke-width="4" stroke-linecap="round" stroke-miterlimit="10" x1="286.2" y1="211.6" x2="191.8" y2="205"/>
			
				<line fill="none" stroke="#72A84F" stroke-width="4" stroke-linecap="round" stroke-miterlimit="10" x1="380.8" y1="221.2" x2="286.2" y2="211.6"/>
		</g>
	</g>
</g>
<circle fill="#FFFFFF" stroke="#72A84F" stroke-width="4" stroke-miterlimit="10" cx="97.2" cy="125.9" r="4.5"/>
<circle fill="#FFFFFF" stroke="#72A84F" stroke-width="4" stroke-miterlimit="10" cx="191.2" cy="204.9" r="4.5"/>
<circle fill="#FFFFFF" stroke="#72A84F" stroke-width="4" stroke-miterlimit="10" cx="286.2" cy="211.9" r="4.5"/>
<circle fill="#FFFFFF" stroke="#72A84F" stroke-width="4" stroke-miterlimit="10" cx="380.2" cy="221.9" r="4.5"/>
<g>
	<g>
		<path fill="#3B495D" d="M79.1,112.1c0-4.5,6.2-5.2,6.2-8.2c0-1.3-1-2.1-2.3-2.1c-1.7,0-2.6,1.6-2.6,1.6l-1.3-0.9
			c0,0,1.2-2.4,4-2.4c2.3,0,4,1.5,4,3.7c0,4.2-6.1,4.8-6.1,7.7h6.3v1.5h-8.2C79.2,112.7,79.1,112.4,79.1,112.1z"/>
		<path fill="#3B495D" d="M90.3,110.2c0,0,1,1.4,2.8,1.4c1.5,0,2.8-1,2.8-2.6c0-1.5-1.3-2.6-2.9-2.6c-1.2,0-2.1,0.6-2.1,0.6l-1-0.4
			l0.6-6.3h6.4v1.5H92l-0.3,2.7c0,0.4-0.1,0.7-0.1,0.7h0c0,0,0.7-0.4,1.6-0.4c2.7,0,4.4,1.9,4.4,4.1c0,2.4-1.9,4.3-4.5,4.3
			c-2.6,0-3.9-1.8-3.9-1.8L90.3,110.2z"/>
		<path fill="#3B495D" d="M99.1,108.6l5.9-8.2h2v7.8h1.7v1.5H107v3.4h-1.7v-3.4h-6.2V108.6z M105.3,108.2v-4.6
			c0-0.6,0.1-1.3,0.1-1.3h0c0,0-0.3,0.6-0.6,1l-3.6,4.8v0H105.3z"/>
		<path fill="#3B495D" d="M110.4,102.8c0-1.5,1.2-2.7,2.7-2.7s2.7,1.2,2.7,2.7c0,1.5-1.2,2.7-2.7,2.7S110.4,104.3,110.4,102.8z
			 M120.3,100.4h1.7l-9.7,12.7h-1.7L120.3,100.4z M114.4,102.8c0-0.7-0.6-1.3-1.3-1.3s-1.3,0.6-1.3,1.3c0,0.8,0.6,1.3,1.3,1.3
			S114.4,103.6,114.4,102.8z M119.6,108c1.5,0,2.7,1.2,2.7,2.7c0,1.5-1.2,2.7-2.7,2.7c-1.5,0-2.7-1.2-2.7-2.7
			C116.9,109.2,118.1,108,119.6,108z M119.6,112c0.7,0,1.3-0.6,1.3-1.3c0-0.7-0.6-1.4-1.3-1.4c-0.8,0-1.3,0.6-1.3,1.4
			C118.3,111.4,118.9,112,119.6,112z"/>
	</g>
</g>
<g>
	<g>
		<path fill="#3B495D" d="M194.9,180c0.4-0.7,0.7-1.2,0.7-1.2v0c0,0-0.3,0.1-0.9,0.1H189v-1.5h8.5v1.2l-5.7,11.5h-1.8L194.9,180z"/>
		<path fill="#3B495D" d="M198.9,188.5h2.8v-8.2c0-0.4,0-0.8,0-0.8h0c0,0-0.1,0.3-0.6,0.7l-1.2,1.2l-1.1-1.1l3-3h1.6v11.2h2.8v1.5
			h-7.3V188.5z"/>
		<path fill="#3B495D" d="M207.6,179.7c0-1.5,1.2-2.7,2.7-2.7s2.7,1.2,2.7,2.7c0,1.5-1.2,2.7-2.7,2.7S207.6,181.2,207.6,179.7z
			 M217.6,177.3h1.7l-9.7,12.7h-1.7L217.6,177.3z M211.6,179.7c0-0.7-0.6-1.3-1.3-1.3s-1.3,0.6-1.3,1.3c0,0.8,0.6,1.3,1.3,1.3
			S211.6,180.5,211.6,179.7z M216.8,184.9c1.5,0,2.7,1.2,2.7,2.7c0,1.5-1.2,2.7-2.7,2.7c-1.5,0-2.7-1.2-2.7-2.7
			C214.1,186.1,215.3,184.9,216.8,184.9z M216.8,188.9c0.7,0,1.3-0.6,1.3-1.3c0-0.7-0.6-1.4-1.3-1.4c-0.8,0-1.3,0.6-1.3,1.4
			C215.5,188.3,216.1,188.9,216.8,188.9z"/>
	</g>
</g>
<g>
	<g>
		<path fill="#3B495D" d="M277,194.9c0,0,1,1.4,2.8,1.4c1.5,0,2.8-1,2.8-2.6c0-1.5-1.3-2.6-2.9-2.6c-1.2,0-2.1,0.6-2.1,0.6l-1-0.4
			l0.6-6.3h6.4v1.5h-4.9l-0.3,2.7c0,0.4-0.1,0.7-0.1,0.7h0c0,0,0.7-0.4,1.6-0.4c2.7,0,4.4,1.9,4.4,4.1c0,2.4-1.9,4.3-4.5,4.3
			c-2.6,0-3.9-1.8-3.9-1.8L277,194.9z"/>
		<path fill="#3B495D" d="M286.3,192c0-3.3,1.8-7.1,5.7-7.1c1.5,0,2.5,0.5,2.5,0.5l-0.6,1.5c0,0-0.8-0.4-1.8-0.4
			c-2.3,0-3.5,2.2-3.8,4.3h0c0.5-0.7,1.7-1.2,2.8-1.2c2.4,0,4,1.8,4,4.2c0,2.5-1.7,4.2-4.1,4.2C288.4,197.9,286.3,195.6,286.3,192z
			 M293.4,193.7c0-1.5-1-2.7-2.6-2.7c-1.4,0-2.6,0.9-2.6,1.8c0,1.7,1.2,3.5,2.9,3.5C292.5,196.3,293.4,195.2,293.4,193.7z"/>
		<path fill="#3B495D" d="M296.9,187.5c0-1.5,1.2-2.7,2.7-2.7s2.7,1.2,2.7,2.7c0,1.5-1.2,2.7-2.7,2.7S296.9,188.9,296.9,187.5z
			 M306.9,185h1.7l-9.7,12.7h-1.7L306.9,185z M301,187.5c0-0.7-0.6-1.3-1.3-1.3s-1.3,0.6-1.3,1.3c0,0.8,0.6,1.3,1.3,1.3
			S301,188.2,301,187.5z M306.2,192.6c1.5,0,2.7,1.2,2.7,2.7c0,1.5-1.2,2.7-2.7,2.7c-1.5,0-2.7-1.2-2.7-2.7
			C303.4,193.8,304.6,192.6,306.2,192.6z M306.2,196.6c0.7,0,1.3-0.6,1.3-1.3c0-0.7-0.6-1.4-1.3-1.4c-0.8,0-1.3,0.6-1.3,1.4
			C304.8,196,305.4,196.6,306.2,196.6z"/>
	</g>
</g>
<g>
	<g>
		<path fill="#3B495D" d="M371.4,206.5c0,0,1.2,1.4,3.1,1.4c1.4,0,2.6-1,2.6-2.3c0-1.6-1.4-2.3-3-2.3h-0.9l-0.4-1l2.8-3.3
			c0.4-0.5,0.8-0.8,0.8-0.8v0c0,0-0.4,0.1-1.1,0.1H371v-1.5h7.6v1.1l-3.5,4c1.7,0.2,3.7,1.3,3.7,3.7c0,2.2-1.7,4.1-4.3,4.1
			c-2.6,0-4.1-1.7-4.1-1.7L371.4,206.5z"/>
		<path fill="#3B495D" d="M380.5,204.9l5.9-8.2h2v7.8h1.7v1.5h-1.7v3.4h-1.7V206h-6.2V204.9z M386.6,204.5v-4.6
			c0-0.6,0.1-1.3,0.1-1.3h0c0,0-0.3,0.6-0.6,1l-3.6,4.8v0H386.6z"/>
		<path fill="#3B495D" d="M391.7,199.1c0-1.5,1.2-2.7,2.7-2.7s2.7,1.2,2.7,2.7c0,1.5-1.2,2.7-2.7,2.7S391.7,200.6,391.7,199.1z
			 M401.7,196.7h1.7l-9.7,12.7h-1.7L401.7,196.7z M395.7,199.1c0-0.7-0.6-1.3-1.3-1.3s-1.3,0.6-1.3,1.3c0,0.8,0.6,1.3,1.3,1.3
			S395.7,199.9,395.7,199.1z M400.9,204.3c1.5,0,2.7,1.2,2.7,2.7c0,1.5-1.2,2.7-2.7,2.7c-1.5,0-2.7-1.2-2.7-2.7
			C398.2,205.5,399.4,204.3,400.9,204.3z M400.9,208.3c0.7,0,1.3-0.6,1.3-1.3c0-0.7-0.6-1.4-1.3-1.4c-0.8,0-1.3,0.6-1.3,1.4
			C399.6,207.7,400.2,208.3,400.9,208.3z"/>
	</g>
</g>
</svg>
